<mxfile host="Electron" modified="2023-12-20T14:30:20.308Z" agent="Mozilla/5.0 (Macintosh; Intel Mac OS X 10_15_7) AppleWebKit/537.36 (KHTML, like Gecko) draw.io/22.1.2 Chrome/114.0.5735.289 Electron/25.9.4 Safari/537.36" etag="E-6TtR4YCKari2eepkpf" version="22.1.2" type="device">
  <diagram name="Page-1" id="LbfhoFpA35uC075Nycsw">
    <mxGraphModel dx="697" dy="407" grid="0" gridSize="10" guides="0" tooltips="1" connect="1" arrows="1" fold="1" page="1" pageScale="1" pageWidth="850" pageHeight="1100" math="0" shadow="0">
      <root>
        <mxCell id="0" />
        <mxCell id="1" parent="0" />
        <mxCell id="mQq_rkckX5Se1eWS7O4C-20" value="Client&lt;br&gt;&lt;br&gt;&lt;br&gt;&lt;br&gt;" style="rounded=1;whiteSpace=wrap;html=1;" parent="1" vertex="1">
          <mxGeometry x="119.99" y="270" width="80" height="67.5" as="geometry" />
        </mxCell>
        <mxCell id="mQq_rkckX5Se1eWS7O4C-1" value="" style="sketch=0;outlineConnect=0;fontColor=#232F3E;gradientColor=none;strokeColor=#232F3E;fillColor=#ffffff;dashed=0;verticalLabelPosition=bottom;verticalAlign=top;align=center;html=1;fontSize=12;fontStyle=0;aspect=fixed;shape=mxgraph.aws4.resourceIcon;resIcon=mxgraph.aws4.client;" parent="1" vertex="1">
          <mxGeometry x="140.19" y="289.39" width="39.61" height="39.61" as="geometry" />
        </mxCell>
        <mxCell id="mQq_rkckX5Se1eWS7O4C-36" value="" style="group" parent="1" vertex="1" connectable="0">
          <mxGeometry x="282" y="240" width="190" height="130" as="geometry" />
        </mxCell>
        <mxCell id="mQq_rkckX5Se1eWS7O4C-8" value="&lt;div style=&quot;text-align: justify;&quot;&gt;&lt;span style=&quot;background-color: initial;&quot;&gt;&amp;nbsp; &amp;nbsp; &amp;nbsp; AWS EC2 instance&lt;/span&gt;&lt;/div&gt;&lt;div style=&quot;text-align: justify;&quot;&gt;&lt;br&gt;&lt;/div&gt;&lt;div style=&quot;text-align: justify;&quot;&gt;&lt;br&gt;&lt;/div&gt;&lt;div style=&quot;text-align: justify;&quot;&gt;&lt;br&gt;&lt;/div&gt;&lt;div style=&quot;text-align: justify;&quot;&gt;&lt;br&gt;&lt;/div&gt;&lt;div style=&quot;text-align: justify;&quot;&gt;&lt;br&gt;&lt;/div&gt;&lt;div style=&quot;text-align: justify;&quot;&gt;&lt;br&gt;&lt;/div&gt;&lt;div style=&quot;text-align: justify;&quot;&gt;&lt;br&gt;&lt;/div&gt;" style="rounded=1;whiteSpace=wrap;html=1;" parent="mQq_rkckX5Se1eWS7O4C-36" vertex="1">
          <mxGeometry x="-40" width="230" height="130" as="geometry" />
        </mxCell>
        <mxCell id="mQq_rkckX5Se1eWS7O4C-12" value="" style="shape=image;verticalLabelPosition=bottom;labelBackgroundColor=default;verticalAlign=top;aspect=fixed;imageAspect=0;image=https://miro.medium.com/v2/resize:fit:600/1*W02WEmR0_JeJXfLWN2zHwQ.png;" parent="mQq_rkckX5Se1eWS7O4C-36" vertex="1">
          <mxGeometry x="-18.2" width="40" height="30" as="geometry" />
        </mxCell>
        <mxCell id="mQq_rkckX5Se1eWS7O4C-27" value="&lt;p&gt;&lt;font style=&quot;font-size: 10px;&quot; color=&quot;#ffffff&quot;&gt;RESTful APIs&lt;/font&gt;&lt;/p&gt;" style="rounded=1;whiteSpace=wrap;html=1;arcSize=50;fillColor=#000000;align=center;" parent="mQq_rkckX5Se1eWS7O4C-36" vertex="1">
          <mxGeometry x="107" y="43" width="75" height="19" as="geometry" />
        </mxCell>
        <mxCell id="mQq_rkckX5Se1eWS7O4C-28" value="&lt;font style=&quot;font-size: 10px;&quot; color=&quot;#ffffff&quot;&gt;MVC&lt;/font&gt;" style="rounded=1;whiteSpace=wrap;html=1;arcSize=50;fillColor=#000000;align=center;" parent="mQq_rkckX5Se1eWS7O4C-36" vertex="1">
          <mxGeometry x="122" y="69" width="45" height="20" as="geometry" />
        </mxCell>
        <mxCell id="WT4P8QazUYSX7gvzG4r9-7" value="" style="shape=image;verticalLabelPosition=bottom;labelBackgroundColor=default;verticalAlign=top;aspect=fixed;imageAspect=0;image=https://miro.medium.com/v2/resize:fit:365/1*Jr3NFSKTfQWRUyjblBSKeg.png;" vertex="1" parent="mQq_rkckX5Se1eWS7O4C-36">
          <mxGeometry x="39" y="47" width="66" height="36.35" as="geometry" />
        </mxCell>
        <mxCell id="mQq_rkckX5Se1eWS7O4C-37" value="" style="group" parent="1" vertex="1" connectable="0">
          <mxGeometry x="514" y="270" width="147" height="82.07" as="geometry" />
        </mxCell>
        <mxCell id="mQq_rkckX5Se1eWS7O4C-24" value="Cloud database&lt;br&gt;&lt;br&gt;&lt;br&gt;&lt;br&gt;" style="rounded=1;whiteSpace=wrap;html=1;" parent="mQq_rkckX5Se1eWS7O4C-37" vertex="1">
          <mxGeometry width="147" height="70" as="geometry" />
        </mxCell>
        <mxCell id="WT4P8QazUYSX7gvzG4r9-5" value="" style="shape=image;verticalLabelPosition=bottom;labelBackgroundColor=default;verticalAlign=top;aspect=fixed;imageAspect=0;image=data:image/png,iVBORw0KGgoAAAANSUhEUgAAAXwAAACzCAYAAACKLqcfAAAKp2lDQ1BJQ0MgUHJvZmlsZQAASImVlwdQk9kWx+/3pTcCJPQWehOkE0BK6AGUXkUlJAFCCSEQVOzI4gqsBRERrMiCiIKrUmQVFVGsKBbAuiCLiPJcLNhQeR8whN19bd6ZuXN/88+5/3vune/OnABAkeWIRKmwLABpwixxiI87Iyo6hoEbBmhAA0qAAmgcbqaIFRQUAJCYnf8aH3oANDXfNZvy+tff/2vI8fiZXACgIITjeZncNIRPIeMlVyTOAgB1ANF1l2eJprgDYboYKRDhvilOnOHRKY6fZjSYzgkL8UCYDgCezOGIEwEgMxCdkc1NRHzIbghbCHkCIcIihF3S0tJ5CB9H2AjJQTTylD8z/k8+iX/xjJd6cjiJUp45y3TgPQWZolTOyv/zOv53pKVKZvcwQAY5SewbgszyyJ31paT7S1kYvyhwlgW86fxpTpL4hs8yN9MjZpZ5HE9/6drURQGznCDwZkt9sthhs8zP9AqdZXF6iHSvBLEHa5Y54rl9JSnhUj2Jz5b65ySFRc5ytiBi0SxnpoT6z+V4SHWxJERaP1/o4z63r7f07GmZfzqvgC1dm5UU5is9O2eufr6QNeeZGSWtjcf39JrLCZfmi7LcpXuJUoOk+fxUH6memR0qXZuFfJBza4Okd5jM8QuaZRAEkkAqYAArYI+MCMAEIIu/ImvqIB7popViQWJSFoOFvDA+gy3kms9jWFlYWQMw9V5nPod3IdPvEFJsm9PSq5DP+APyRrbPafElADTnA6D8cE7T2wcANQ+ApnauRJw9o02/JQwgAiqgAxWgCXSBETBDarMDTsANeAE/EAjCQDRYCrhI7WlADJaD1WADyAeFYBvYCcrBfnAIHAbHwAnQDM6AC+AyuA5ug/vgEegHQ+AVGAMfwAQEQTiIAtEgFUgL0odMISuICblAXlAAFAJFQ3FQIiSEJNBqaCNUCBVD5dBBqBb6BToNXYCuQt3QA2gAGoHeQl9gFEyG6bAGbADPh5kwC/aHw+AlcCKcAefAefAWuAyuhI/CTfAF+Dp8H+6HX8HjKIAioRRR2igzFBPlgQpExaASUGLUWlQBqhRViapHtaI6UXdR/ahR1Gc0Fk1DM9BmaCe0LzoczUVnoNeii9Dl6MPoJnQH+i56AD2G/o6hYNQxphhHDBsThUnELMfkY0ox1ZhGzCXMfcwQ5gMWi1XEGmLtsb7YaGwydhW2CLsX24A9j+3GDmLHcTicCs4U54wLxHFwWbh83G7cUdw53B3cEO4TnoTXwlvhvfExeCE+F1+KP4Jvw9/BD+MnCLIEfYIjIZDAI6wkbCVUEVoJtwhDhAmiHNGQ6EwMIyYTNxDLiPXES8THxHckEkmH5EAKJglI60llpOOkK6QB0meyPNmE7EGOJUvIW8g15PPkB+R3FArFgOJGiaFkUbZQaikXKU8pn2RoMuYybBmezDqZCpkmmTsyr6kEqj6VRV1KzaGWUk9Sb1FHZQmyBrIeshzZtbIVsqdle2XH5WhylnKBcmlyRXJH5K7KvZDHyRvIe8nz5PPkD8lflB+koWi6NA8al7aRVkW7RBuiY+mGdDY9mV5IP0bvoo8pyCvYKEQorFCoUDir0K+IUjRQZCumKm5VPKHYo/hFSUOJpcRX2qxUr3RH6aOymrKbMl+5QLlB+b7yFxWGipdKisp2lWaVJ6poVRPVYNXlqvtUL6mOqtHVnNS4agVqJ9QeqsPqJuoh6qvUD6nfUB/X0NTw0RBp7Na4qDGqqajpppmsWaLZpjmiRdNy0RJolWid03rJUGCwGKmMMkYHY0xbXdtXW6J9ULtLe0LHUCdcJ1enQeeJLlGXqZugW6Lbrjump6W3UG+1Xp3eQ32CPlM/SX+Xfqf+RwNDg0iDTQbNBi8MlQ3ZhjmGdYaPjShGrkYZRpVG94yxxkzjFOO9xrdNYBNbkySTCpNbprCpnanAdK9p9zzMPId5wnmV83rNyGYss2yzOrMBc0XzAPNc82bz1/P15sfM3z6/c/53C1uLVIsqi0eW8pZ+lrmWrZZvrUysuFYVVvesKdbe1uusW6zf2Jja8G322fTZ0mwX2m6ybbf9ZmdvJ7artxux17OPs99j38ukM4OYRcwrDhgHd4d1DmccPjvaOWY5nnD8w8nMKcXpiNOLBYYL+AuqFgw66zhznA8697swXOJcDrj0u2q7clwrXZ+56brx3KrdhlnGrGTWUdZrdwt3sXuj+0cPR481Huc9UZ4+ngWeXV7yXuFe5V5PvXW8E73rvMd8bH1W+Zz3xfj6+2737WVrsLnsWvaYn73fGr8Of7J/qH+5/7MAkwBxQOtCeKHfwh0LHy/SXyRc1BwIAtmBOwKfBBkGZQT9GowNDgquCH4eYhmyOqQzlBa6LPRI6Icw97CtYY/CjcIl4e0R1IjYiNqIj5GekcWR/VHzo9ZEXY9WjRZEt8TgYiJiqmPGF3st3rl4KNY2Nj+2Z4nhkhVLri5VXZq69Owy6jLOspNxmLjIuCNxXzmBnErOeDw7fk/8GNeDu4v7iufGK+GN8J35xfzhBOeE4oQXic6JOxJHklyTSpNGBR6CcsGbZN/k/ckfUwJTalImUyNTG9LwaXFpp4XywhRhR7pm+or0bpGpKF/Un+GYsTNjTOwvrs6EMpdktmTRkcbohsRI8oNkINsluyL70/KI5SdXyK0Qrrix0mTl5pXDOd45P69Cr+Kual+tvXrD6oE1rDUH10Jr49e2r9Ndl7duaL3P+sMbiBtSNtzMtcgtzn2/MXJja55G3vq8wR98fqjLl8kX5/ductq0/0f0j4IfuzZbb969+XsBr+BaoUVhaeHXIm7RtZ8sfyr7aXJLwpaurXZb923DbhNu69nuuv1wsVxxTvHgjoU7mkoYJQUl73cu23m11KZ0/y7iLsmu/rKAspbderu37f5anlR+v8K9omGP+p7Nez7u5e29s89tX/1+jf2F+78cEBzoO+hzsKnSoLL0EPZQ9qHnVRFVnT8zf66tVq0urP5WI6zpPxxyuKPWvrb2iPqRrXVwnaRu5Gjs0dvHPI+11JvVH2xQbCg8Do5Ljr/8Je6XnhP+J9pPMk/Wn9I/taeR1ljQBDWtbBprTmrub4lu6T7td7q91am18VfzX2vOaJ+pOKtwdmsbsS2vbfJczrnx86LzoxcSLwy2L2t/dDHq4r2O4I6uS/6Xrlz2vnyxk9V57orzlTNXHa+evsa81nzd7nrTDdsbjTdtbzZ22XU13bK/1XLb4XZr94Lutjuudy7c9bx7+R773vX7i+5394T39PXG9vb38fpePEh98OZh9sOJR+sfYx4XPJF9UvpU/Wnlb8a/NfTb9Z8d8By48Sz02aNB7uCr3zN//zqU95zyvHRYa7j2hdWLMyPeI7dfLn459Er0amI0/x9y/9jz2uj1qT/c/rgxFjU29Eb8ZvJt0TuVdzXvbd63jweNP/2Q9mHiY8EnlU+HPzM/d36J/DI8sfwr7mvZN+Nvrd/9vz+eTJucFHHEnOlWAIUMOCEBgLc1AFCiAaDdBoC4eKafng5o5j/ANIH/xDM993TYAXCoF4CwVQAE3ARgdznSziL+1FgAgqiI7gRga2vpmO19p/v0qWCRAWhXBYCkCv5NzPTwf6r77zOYcrUBf5//Cb5VA7hQizKGAAAAVmVYSWZNTQAqAAAACAABh2kABAAAAAEAAAAaAAAAAAADkoYABwAAABIAAABEoAIABAAAAAEAAAF8oAMABAAAAAEAAACzAAAAAEFTQ0lJAAAAU2NyZWVuc2hvdORe7u0AAAHWaVRYdFhNTDpjb20uYWRvYmUueG1wAAAAAAA8eDp4bXBtZXRhIHhtbG5zOng9ImFkb2JlOm5zOm1ldGEvIiB4OnhtcHRrPSJYTVAgQ29yZSA2LjAuMCI+CiAgIDxyZGY6UkRGIHhtbG5zOnJkZj0iaHR0cDovL3d3dy53My5vcmcvMTk5OS8wMi8yMi1yZGYtc3ludGF4LW5zIyI+CiAgICAgIDxyZGY6RGVzY3JpcHRpb24gcmRmOmFib3V0PSIiCiAgICAgICAgICAgIHhtbG5zOmV4aWY9Imh0dHA6Ly9ucy5hZG9iZS5jb20vZXhpZi8xLjAvIj4KICAgICAgICAgPGV4aWY6UGl4ZWxZRGltZW5zaW9uPjE3OTwvZXhpZjpQaXhlbFlEaW1lbnNpb24+CiAgICAgICAgIDxleGlmOlBpeGVsWERpbWVuc2lvbj4zODA8L2V4aWY6UGl4ZWxYRGltZW5zaW9uPgogICAgICAgICA8ZXhpZjpVc2VyQ29tbWVudD5TY3JlZW5zaG90PC9leGlmOlVzZXJDb21tZW50PgogICAgICA8L3JkZjpEZXNjcmlwdGlvbj4KICAgPC9yZGY6UkRGPgo8L3g6eG1wbWV0YT4KD506nAAAQABJREFUeAHs3XmwZdd1F/79xh40z7P0WrZkWbY8JyGTI5QRSIAQF0kAQ4AqqvgHqOJPoOBv/vnxBwWVQGVgCiQhE4QkkEEZHCdxbNmyLcka25rnsec3/dZnnbtun759b79u+fWT2jq7+7xzzh7WXnvttb97nXX22XdufX1zc65FmNuMYz0uNty0tjkf54U4hEh7G4W5ueT4tDna3Dy3+W/B/9urBaEh53of0J5zvQ3nOP9dF7yzxvLZx6KSZ2D5HCyHHIHlmwuB6nNtkdCFbgBXZhFxvIUos51V91qlqTsWtq0NMbDn3qJJa7vacM73QWjNud6GHONvgR5tlw4ZuEMfnCZ8nSCouAkM0fVjwD9ORs7RMS40vjie7SxfqXHbZsMztIS2rWnbObjO9Tac6/xTiqENb2poDGN5Qmw7okekPoHbAfj8NkMYJDBIYJDAIIF3gAQGwH8HdPLQxEECgwQGCZDAAPiDHgwSGCQwSOAdIoEB8N8hHT00c5DAIIFBAt1L2xN8+/VOPc51eUL69gutXs6e6VK/7edkoDhIYJDAIIGvXwksemEMzxN0rcWv0LvM9TwVfxbOBfhI7yTo9+vtN2sneejX+2auz/U2nOv867NzvQ3nOv9DH5w+cgwundOX1ZBzkMAggUEC57QEpqzDP3vtmWVJnL0aB8qDBAYJDBIYJFAS2DHAB/bTAD9fD+zIhwjV5OE8SGCQwCCBd6YE3nKXTv9VwTuzC4ZWDxIYJDBIYGcksJgrcbZzFU68+K2tvua6bdm61T5h4ec74ahrfX2trcVh54Hl3cttY34+Xxzn34jb3Nho8+KUT3oR13uhbBOgczl40tmOF8PTnpjOZbnsJO8MjXNbi3ZAWgboNjx9D3r65vvqTWFFKrc/ji7oSmExz/5sk/Z3YG+XNtXFhj1xCaCBuPrnYgPO9Y219sxzT7eN9fV247tubqvxbyH/zbWFAPm1Y2ttedfyiN8O9DdyGkHx7G8kthMKerbrGOinCp7yzyCjU4qng4tCilNnfdOpQx9sLbozk9EIyMeY7oI7HSbPT9s8bWsGTpWjrHjaUoxuhNKw0I+tH8uJZXVztd3/6ANh5a+3a951Y5yld1QXwqLA3ObaRpsLKz/wPQKY532KuC7b8HeQwCCBQQKDBM5QAtv+0jbdMNAbyI/+bQTYb8yHdb4434D9/mceb1967P62trHebnn+ve36K28MOJ9PN8/ifNj6i4sd2GuMp4I4cfdszAF9M9YQBgkMEhgkMEjgTCWw7YCfpvoGiO6s+o2wytfm19ta/LjKaltrz77yfPvCI/e2p954NgB8o9376JfaRRdf2i5evqitx/3a5npbXgq2uieRrj090B/g/ky7eMg/SGCQwCCBTgLbD/iQGioz8uPfeoD96vxqO7B+qD3x/JPtnvu+0B55/LF2ZHm1rce/rzz5ULvikqva+9/z/rYU1v3a5lpa88tzI9Z6CN+5i7rJZOjAQQKDBAYJDBI4Mwlsy7JMvvo6uuo3010D7Nfm19qhjUPt2deebfc+8sV2z0NfaM8dfL6t7w5rfvdme/HQy+2B/Q+0Fw+8GPZ/TAFh5XP7uE5fTuE74DeXePk7hEECgwQGCQwSOGMJzG39m7Y9E7tHvl7IigLCiccB/Ass+7W1dnjjaJvfu9Be33ijffmx+9pnH7inPfz0o+3Y3FpbDVDfmI+MkXl5dbFduXhZ++DtH2wfuO2Ods0FV8bSoYU2f2yunb/rgviZ3Zg8VtfawsJiW4iXuKtrq21xefqDyXYsdew1cbgcJDBIYJDAuSUBRnFyfOJv2m5usO1PY5WO9TFpaU9pdh/0K/nYerhq5lbb5u7WXl97vT309MMB9p9rjzz7WDu2GAsww5cfK/DjN9LRnW/rixvt5aOvtM98+TPtyLFD7WPv+2i77uJr21L48Vc3j6V7h+tnwXrO4HlpeUnpqm44DxIYJDBIYJDAaUpguql8moWnZduYD2t/qeUL2keeeqz96Zc+0x4MP/2hzcNh8S8G2G9w1iTYz1m9sxAunJgIXjr0Yrs/XDu7d+1qu9+73K4975rw56+2pYUA+LDy1+NlrpU8+SHIgPfTRD/EDRIYJDBI4JQS2HbA31yca4fbsfb0y0+3Lzx4b/jnv9IOzR1uSxcst6MxDVi1sxnLNvPJIVgD5JsLm23X+UvtpfDjf/7+e9quAPnFWxfaJcsXt8WlhfxYy0daa8rFCqCFeLk7hEECgwQGCQwSODMJbAn4aUyHb/50w2p8RfvUq8+0z9/3+fbw44+0w+tH2tyecN3w23PG9EiFUyfdM6vhAsp19rEu/+U3XmkPPPyVtnl4o33ktg+1pYsX2vLCrjYf7p9u7/4egdNlasg3SGCQwCCBQQJ8JKcO4XTJf+v5N+5GK3LiosW3VGFxg/FIjdU4awur7fVjr8aHVQ/Hl7Rfai8feKktnbccFnxrh44cziX6m6O9OYD9XNCajxe38/FUcHT1SFtYnmu7Iv+rB2LlzqP3x5r9Z9vB1SgXee2tsxCgPx++fPfdEV/lxrNCHr7QHcXHaRROjqmU4TxIYJDAIIGvOwkA1gyJsHEVEL8J5juoP/6LV12uk/5upmUO9LsCLPHFcKvMBeCnfb52JIF+c3GhvRwvab+4/3Pt3gf/uL16+Lm2sRhr6sM6D7SO/EttY6NzxaSlnsVjiWXQWViYb7t2LwRdX9sejWWc6+3YwaPt7s/+QVsMn/6e689r88oeC+9/lNvYhU7wAOSjXdW0OmtEwn/uH+Gmq1f8ToZpL7XVfy6tJjrX2zCT/64jdlId3nRdM9swMp7eNOEdLHiut+Fc4r9Ti+MgDyBhI+9Kh+Kn6vj0t3cFjgPqiEJMA/G1VFjmS+1I+O2/+sxX24P7H27Pv/pSfHAVxCPeR7frtWwTgckA+IPO+EkiJpi1ePG7Fn79Vw691j73pS+0J194KlxC8bo3XvDOx/YM8wHkI7s+nzKqacXfuJqKmKxzuB8kMEhgkMA7UAJb+vATPAP0a2bowDRQOi7S2RMUrLp56dAr7f7HHmyPPf14O7h2tM3Fskp76ByLbZCB/1xY8YntPSEXLZulbTDVR8EkYZ3+saMHguZX2qUXXtouO/+SdsWeS2InzW5nTe4g5n5XirXfFT5OpagN50ECgwQGCQwSIIGtAb/D9gmwZo93X8VaZvnK+mvtwXhB+/BT+9vr4XOf37scqZvtaHyAdSzcM/Px0dRcrKzptug8WfDAG957T7DpxUDAuL13uHs21g/Hcs2vtOuvuLrtvfm9bSFmg70LeyNPee9dTkf7mmCGSeBkmQ8xgwQGCbzzJLA14LOhA1D9S3saeoblvhrLKdcX1mOp5bH2xEtP5+6Xz7/2QnxIFV/GSo9llPH5VUwpYdnztZc/vSuORIa01AG+vIA+LHsvgV0vLFt5v9meff25ds9XvtD2hIvo1utuznTxHQ2PD13ZiFIsg8vj9n8XN/wdJDBIYJDAO1kC5anZQgaJ8h2WjsA51uTkqnpr7p8NoH/8+Sdig7SDAfgtVtYcbUfWjsXqnHAF2fkyQHxjtAfOCI/H9QHmfJsQdLv1PjFhxNVaTCY5eSzGpDJ3rD385MN5tFjR40Wy3PEmeAT2SaWj2btM0jUDdKnD30ECgwQGCbxjJbAYOJthzlYHCY4sbBicfyOmg+jNWpUDauOF6lyA+bGA/Mdfih0w7/98e/nwK235gnh5G1/HellrJukoJPnRTxZ21/6mFyYyWPXDjue3Tz98nKWx+O2hvx4LbI7Evjy7Y2nRfY/c326+7qb2/utuD3dPPAHEjprLywtt/Wj49ZdjNVA1ZkQ/pgNXPEOjVmTEW/5n1hv/t5yxM2DgXG8D3ezryxk0/W2T9Vzvg64LsifeNjI9U0befn3Q4TXcOx4C0zswTFw+Hj/lSj5gXDkBsa9j+ehfjBe1Dz+5v734xku5K+ZG7I452jghKWXVwLaOCfodsEeuWI7pC1rHvANwxxPBemyUxrO/EMswWfsvvP5i++JDX26vHnkjtlwOyz/22mHpLwTon+uDd0I0w+0ggUECgwS2XQJbunSA/Xoc6YcPO9m84UdK7Gb/zIvPtq/EypyXD7zavf71C7l+2Sry1KEC72EdBfxagY5D8CtZjgT7EejHCsyYAGL1Trz0je+t2mZ4hg6sHmoPfjVcO0/tb6uRYS4mgqPxZa/KNmMf/SEMEhgkMEhgkMBsCWwJ+F6frnvpCnX54sP69lu0b4SV/dSzT7VnX3ou18jPx4Zpgdixzw3wPg7uY7CP5JoEsJOAD6jdjGaVzsKPXZOjUh93LcUksLkWe+jEap+NeCZZ3LXU3jh2uH3x4Qfay4dej4KLaeUfC7D3c4mTgTuq+zeZMtwPEhgkMEjgnSeBLQE/fekhl3S/BPAD3vUA15deeak9+fRT7fDR2Bht12K6eVbjR8o9AxTIj636KJ8LacqkL3rOSowsfO9gw1PTHSz8mFz8qDn3zlqs55+Lr3mB+5PPPx2/mrW/HYxt2qz1x5tJqB+yvn7EcD1IYJDAIIF3uAS2BHwmOBBnnVsdsx5W/Gp89WqTs+dffSG3MF6IHS0B8tGjx/IJYHOM7mnHK5kHOidfRxTqBfrxcnbOAfBjW+Tl+e6HT9BfC/fNkVgBdHDtUHvkicfaS6+/nE8dXvueAPjJc8d3V586hjBIYJDAIIF3tgTG6/DzbfMYqMMRMloyszuA+OjBQ7Hj5VKC/cbSZnt59dX2+cfuba/FRmmL8atWlmAuLC3nx1W+mE1gN0OMQl6OQFiUe9Y/+J+P/LmhGreRtFG+KmMvfLPSXGzhoMT83vn20pFX2hMvPtGejvX/V8VXuNbtX7D3vNiEn5UfJa04yseLrq76G4knhO3a02bWm/rtou+FNNlMC9tVx9luw7lOn+zP9TacKf/y06/1eHp2vbg4houTVTHSa2PFKqesTQ8ng/T+Ic+kHruvPMq7n8zTpyvvtCC+yh47dixW9S1Pyzbu21PVMa1gLTcPApgc1yW+X3fRncVnpU+r44zigo1pkgjWsLf1l7bRi/Ht1EK6cvzSbPxmVXsx9sp5/eDruWyyD0VevAqjU8fnqHaVncAJ+XQ5uo6N67rP6F56d181Ra5YEvrawdfaM88909591Urbu3d3+PmPRWO8SBCqyc4nUM3U4c8ggUECW0vAu7OlpaXY3PDEzQeBVgFXnQv4crTFYK94k8Vk6IObfPJUXP9cE4E8BaCnnHQmK4p7IF9tqMlHu/p0+vQrzxRSHZIkkB1PrXYrV2Wr7dWW47nf+qtTTNkj5gIzrXFfjW9q+e6Pza+2Z55/pr32xmtjWD0OsG+iQak8U8oVZlfS6N5zwEL48g8cPNAef/Lx9uJ1t7TLYo8dLqDFuQL8KjScBwkMEnizEugDVi6cGFmtJgCACdgqT4Hd6dZlYvBkP6tc0UXPdeUrMD3denbFbrsVatIwCaCHbh05qUV7IqKyn9a5P3FUATTPlM8qe7bPWwM+90jJIK7fOHygPffic+3Q0UPxJW086o3fjspUx9fA9iTQByn90A+L4d7xgyrPPv9se+q5p9uNV9zQFhfOj6nALprpAMrs+cRxhh3Yr2e4HiTwTpZAgSygdBTwAv/VVd/IdGAsvh8KTIFegWw/3XV/spBHQAfwOled8qEHWJ1nAWnxmoQm/vRpoc3iL/6r3okiJ90W/X5bXR89ejTzSnfvqLblfaSa2CrtJMI7HLE14I/6clWnxwvbF19+sb0Qx1qslsktDgJ46yUt7D/BnXOajZnaiT2QTxZG98FFvrxdXF5sr8ZTxhNPPdluu+m2dt4l50VKPI1knUoocKIiZtLwZ5DAIIHTk0APsIEk0Dp86BBkTl+4e6GAjQ+/D2zGdfn/K0+/4rkAyQLSfnxNEuVvL8B2nh/V2c+Pn1nBT6OuxgRlIlEXnoB0Wf59ftGYxk+fdvGGjmP37t15Fl/l0TShVFzV4VwTQ5/mTl5vCfjRplgBE557a91jX5uXXns5fpHq1VgO2U0AuSwywTU6G+eR/0xAP3E8/3QQPW78KG7ynhV/LFbqnLe0tx04+np77qXn07109cVX+WA3ecjXRMFE6cEkqTHN4WKQwCCBmRIAyEBNAFZcIY8/8US7++6729NPP92WYxLYFYAHPE0IrPDyl8sP7JUBfs71ZABwxRVt8a6BIRrnnXdeu/HGG9vVV1/dbrj++nbZ5ZcnsKb1P/E+IZkb8ZjXE3+0AU9oq+fAgQPtySefbH/2Z3+WdZlUgLazuounCTI5SQBwbULHuQBdXuUvuOCCdnnwevHFF7fLLrssvA5hfoYcCvDl61+73+kwBnyMdHDJSx7gm0IMEA83zuFD8Xb7gt3txfjpwcdjv/tjG8fCpWJ75JjlOM/j3IF9/E06JzcDPSRrhnZPaPmxVc8uP7nkZEzUEStwVuOXsfZesLe9EC+QH3tyf3vPvttyaWaIN5i3uZo1/GaAhP9JItt638luW0meSIzSnBiz7Xdnuw3nOn0CP9fbcKb8y1+WqjNAvDvA/t//+3/fnn/++QQ4QPfGG2+kbKQr0431zgJ2DWxNCofi6QDY79mzpzPMAhALROVJP3rIWZmKl/fmm29uH/vYx9r73ve+dvvtt+dEAFQzRN6FqFf+Kl9l0ak2v/baa21v0Hruuefav/7X/7r91m/9VgK9eo8cOTIub3LQVmfxF110UTt4MDaFDKxCfynqCqLjyWtXtH8+4pVxAP0rrrii3XLLLe3WOL7pz/259oEPfKCdf/75KT950NkMfhejjpIx2U0Lxf+0tKlxIDgTpiPG9Fp6lEJmueMlyDl87Ej48A+mtW8Dtc1w8bD0BekFS51N0CNympdZblQ42R1d9+mx8P1bDwuesq0fXWuvhGvncPwm7vLSBVFTADzrPh+xpjf6NNkZsg0SeEdLoAAT+AE9IP/UU08leAFVAA5IhQJggCYoW4d84lnu9TQAQIGtPKx/9ISaMJxZ3sDx8a9+tT322GPtF3/xF9utt97aPvKRj7Rv+ZZvabfddluCa5VheQvo4rkfALE6nnnmmbTwL7nkkrzHGx727t2bBxrKLox4UwYY14QkTX3unf2an0P5ktP+/fvzCeiee+5pn/qjP2rvf//727d/+7e3b/iGb0g5oacetLUPrZ0KWwN+cGJVjC2LXzvwevrNj22EfyrW4wN7/vsOnDu4N0F0EaffBAIX+vA8ijoeX+Af9dm8zQvZPUt7AvDX2/MvP99efv2VduHlFyaVuZFVj0ZkH8IggUECb0ICxmUBHvAF6t///d/f7ggAe+nleNp//PH20EMP5UTw0ksvpaVfvnHV1bgGtsCZdb6H+ySs/aLt6cCk8corr7SXg6azOECcHoAAVVa0Yczi5op58MEH26c+9an2Td/0Te37vu/72kc/+tEETfnRrXoBKf7XYrJhTQPalZWV9jf/5t/Mut54/fX2RLh3uKeefTYWgMRkdumllyaQex8B9D2RAHNPF8oDdXQBtsNESA74Vpe6yQkv2uWJ4itf+UrmeeGFF9p3fud3tuuuuy5pVP7yeryJLjrjIlsCPop+rWp182h75bXojENvxGdOVuew7kO4UBqwnnHVXYHE4xDSOPQux3FxUVmixq5uWzwE8Kv/5Vdezm0errvsuliaGbNx5MdP8oTem2Uuig5hkMA7VQKAraxPZ8DHSuVeAVZADuDff//97X/+z//ZvvCFL+RTd8mLBSy85z3vaX/v7/299i3f/M1tz8gSrjyse6DKt/5iACLgBcJ/FJYxYH86QNgEoG6TjjOQ/ZM/+ZNMB7bfeddd7Xu/93vbBRdemPUDXYBbEwY/Pn4B9vXxTuDHfuzH8olD3S+9+GJ7LCzy//t//2/72Z/92eSF5wDgmCR8wX/NNde0f/Ev/kWCfQG+l8HS8K39rPkvfvGL+STyekwkniC4o/Dq+NznPtdejLrw8Ff+yl/Jp52anJwTr0byKtmcjfPCv/yX/+pfdZUhDx1HiJtI3kGnFTqvxwvSB594qD323P52ZP5o21iM2SxcOp3/vnPn+JsUJgC2f1tKIKOGxoNDd6i+H0ZsVFRZ6unQUW9srraxutGW5pbbxrF4pFo+r7175Zb02y/FBOUL3gyE2GegCMZ5zEsvbrgcJDBIoJMAwORyME4K/F2Ld88vDQzf9a53NSD36COPJLBKU64O6QCZLx5gVrxa0NsdFv/FAZDXXntte9e7391uf+970/fNFeKFLZx49dVX02KW3xMD95CJgnX+5fvuS3AFsCx09SeIjvgGsngG+lxLaJQvnTVuEkDr8wHawDldxZHfBKOMJ5Mf/dEfTdro8+vXcV3w/N5I/9CHPtTeH08BF8akY5J6Nix7dZQsXJORdqjvhhtuSCHjpeRQ1xkx+jMtrp9+ptdbW/jBjy2KDx851I4cPRI4HbORtfkZEt7jqrsfOXfivofWknq3WWz8pytX1DJ6BNTiCuTH2fMiphVCiv+HPW7tOb+tBn/PPv9cO3osllvF17br8QEWt07STYHOZOBE0sPdIIFBAmMJGGeO8jcDa0AKBAVuF4DGmt23b1877/wL2hsHDmYZbgo4oTyAB54CqxoAKxfE8ixPGn+ZIz6gjHquvPLKBkw/+MEPtrvjRfGv//qvty996Utp7QNlZbiPADnQ/8mf/Ml03dQqGfTwu85XHnVxB5mg1KssHqpdrrlZLgkwfz6eMgQALR2/yXvQKx6VF5xZ+eJNHF7QroQcPIX83M/9XE4e0io/uf3e7/1e+3OR7yMf/nDbG5MWfopuEj3Lf7Z8W7AWSyB3L0eHzB1tL736TDhzDoewoqMCxedjk7P5jXgzH2dg3/n04wONaGSH8h3Q2v14Uwc75sJiiE0Q5sL1EjZAWuIEsbkeShT75tgwbX6tO2KPttYdQWAteLAx/1o8nh0Oeqvx5n9pd2ymFjN2bLXwTOyg+dRzT8bOnbG3T+ybz920Fqt50u000Vk6wEHQZ3LgM3nN9k3vGfQqXxCfnmlG7JnwUnlnkNq26Kpn8rxdFUzS3e777eLzVHSqvyfPpyqzHWmzZDXJR92faZ01RsoiLzoA0rVVL0AVmPLRL8RGh8b14gIfffi5V2Mcx/3u3XvDIu782nhYDRBVPjKPAVi89giWe6aVHXkA6Q/8wA+0f/bP/ln75Cc/mfdcP6x5dbPMgTX////3b/5N+6kAfnwDa2BavntPBf1x77oseaDOYldGW8v6T17CvSPOi1kTTPIdCX1ZVD+o76qrrmqf+MQn2nd913e1w4cPp8tHe5KXkJuJ7Bd+4Rfavffem3RrhZO6diJsCfiBzhFsTxzraGM5ZnjH4r6ALIAzM2SmEb/S6hhFjWPkGx1JortmyeeV8/g6lCGsfUdn6QerdtGMf/HAmH+7UrgD7LE+fy1cTcFf9KWYLj6usqrjrAxXgwS2VQIFJJPnba3kDIhN8lH3Z0AisypX4aRr4HxSuoEHUnI0n3CuhRRJb1Su+Jo8G68sd4AObAHtTTfdlC9of+iHfqjdFi4fvnPlWNNPxLcBBda/G08D/PHKiSswznpxFGVwB4BdO9e1+1lhMl/ej/KbAB2CeJOLpZgrKyvjiQsfJgnt8mR0IJ5SxOFTvOudCKcF+FgxC6YAYzM19zvD3jQRRIeFoEeyTjjHkX36jxyJ/fHDvZM9+hZzOY3zIe7rUwKdPpZeHj+/Va3dTn4KBPs0++3qx1fefrrrkEgOyX56H2QnabgHhPIUSAJ9SzL/+l//62nxA3oWtHyHAjzlU47lzIL2MhcITwJp1tUD+T4frmeFSqszOtbfq1dcAneAuSkD4Hu57d0FHmBn8SG/yYovH/grC1dd70SY3cJx7eH6iOsj4R8/thqPYnk3TnxLLtI/SLQh9LTkY7UOy/5g7PNjz/zRI0HOSqVsbwmjQ6WDBL4OJADchATL0XUZfAl8AC+O4+/2pjQ6ymXeOG+1DFE+AFogiDbQdOzbt6/94A/+YC7JBJ7iLo8PnZQBnFw9Vsz87u/+bjIBaAtsiyt5BX8TS+I+eYt6ZoVxmVFZ+cQVj+rgz7ec08dZnkh8bStwEamr1va7xzf+k7cpPGbBs/BndgtHlXmHag3+kWDwaAhUg5L7Sj8LTJ2KZHZSOHU60Gfbd86bjQD9Q/FR2Fp8I4A/+cxNeT4VwSFtkMAggS0lMA3wqhAr1dJHxtXUYDyOQDUu3GS2ojm1TEQCU8DPDw8YC2BZzlw73CYoWbGDB3n4/Fn+AP++WL3ji9YE1SmVmLQSz+Isz6x8JxSFfxVGZQC3gAcHms7eEeDfNfl4ItCGWl4qPr8RiAmiXEJF+mydTwvw2c/H4henVuOId9K59t1E0Gv62eJvKt35WoGTHIwhPyYkn0gff8fQ+f475ZpKaIgcJLANEjDgJ4/TAo9tqHsaiUle6n5a3jOJmwbQFec8wvGTSJoIahRmvlEOMire+ueSHbCUXxrrnU+/LGMrXT7+8Y+33WHR14tPecvN89X4OteKGBhV9E5grAfclV7nE/KNbvAg9DHP9RjQo278JeCP8gJxrijx2l/0PYVw+8hrY7eaCNA/22FLwDdbxQNWLHmM/XOiIUvLsdQpznzmFTRm/LK1IifOGjvtiMiJnFvcRnYrelJ4Ko4WxMKfFgsEYklY/CiLl8qpXTHLxsVo54ckqkxfsTolpahZYPx4VvfysjLqUJ7CUaqsP6hWnuJavENnGgGuLSPz1Z2yk8GyMfFVruqqc/fepPNPyoeOlQni8al+19Iyb9R3ukF+j5cCOq7xI+AHTf5G9UkvuUirgEZ9FVlxxZM2COgIxad7BzpoFt3xdcS/Gh/1VNBmoXiQD22rQ/DWp1M0qq7iIeUZvKLhmBWUQ7fKVb5qs3j9adfIinNWRpuUd+8ARO4F98rWfZ+uclln5JWneFSmgnLZD5EuyKO/5NFm9/Ioj17Rqbiik+6EkcyU1ZZ+fnTE9+uuss4lX/qdR9Stjso/H0sxN4zPyDu/UB88BXBHPJ7ks/dNhTGdohdndQjAtACVz17e8ssDUith9u3bl/y7rzarg6z+1//6X2Nfvr4QXzwcl2z3JJHtHsm06i1ZsMjRd48HAY+u5S35ua88fPR4EJTFtzRr8a3B900CfqzbZ+WXXCfPSWAb/xyX/AyiBOOwvDGXV0ZDy7rvuqXLMMLYTJtBatuiAyKMoKgrOFNxnLutmj1/GMxdd2bS+G569QaAjhCqMwG6DnIINWjssmfZFQXQWTXgqjMNWmVrEKHrcdNjpo7VmcdCCUyeFEW5OqunFMYn34DW7J9yjXLWEJ8ftNCRTz3qp0x4Od2gDEXkT6xNp2rAorsQj6EGReXzSExJga509avTtbZ5bNUO+Y8ET0txP8mPPGTD0nFIJxuHdnDPeWyXJhwLWueHBeSzdLxYylbyJj98k6Xy5OQLRvRZTmRNTr7oPEk2UQbfBpjgejJUn5RMqh7tc60O7ZaewB/8AxPlHNqgXmd9psxkKPAhS+3De+pUZDw5d3xvEnWgiX6CS+hPyVF5vOBPmr51LZCZNgJLRwGZJdJoVnuqv5yn8ZvEZv05qX3eqx3XxxNH4iwiW8cXX9pDDu7tpumDJ64buiCOLqmTDMjZl7srKytdXxsnjhlBSrlhSj/JZCyX0bW0iiPz6nvx+kMfGAv0Uv36Sh7Bh2p33nln4oiy9AmtnQpbAn5ia3BTII+1OqTB3J0MwF6d+ClOOrAXF4CfJr2nkh5vmfdkLg00g4ASURbXzjpB55mlbRgF6O0V8pnPfCb3EvExiAEkrwMg+vjDhyGPxNeGOpmy6egr44XS++KLQf5GX9gBC4PXIC1lUa97ddjPwyfl9t8AeAUGyr47vkL09SELAUBQor7yzWjmCQ3X1gIL9QoU9Lxoz6FQUvt9OLT5+aj/oYcfTmADbhTTgMC/7Wt9Mo8nuwMCL2CfsgyaHlNNFkeCtvpKtuoKQpkX72StDNrqqD1VHo56ydMa67/0l/5S1oFXj/D6xWoMn7TbVIvMlFWPF2V8vDbYuuOOO/LRGb9krZ7kY1QferNCATya+pis8UgfHFwGthWwGRd+9Ld8PkIiG4cdE8kGTwW46sOPvAI5m0z166yBX/mBCZlpg8OTFV0rGdBBfSdOur6yvtwXrMBRX5Gna2lokYu8ZHMuhL6MTO720/kv/+W/5JOpNjhqAjQujSPjNXU+GrgVXFU/l5yLZk6i9HjUb9V/1TcmUP1jfEv7w9jrR7+4N1YZJvJ+c2wv8Rf/4l9MfTC2BW0qehlxFv9sCfgEVDZzgv7poMpZZBhpLCQbCfxdF7L2x/9OcxbSQTpBKLeEuC9/+csJvjqMwhjcwNhSL8BtyZUBY6A+8MAD6Ss0+OU12BLUgiZaBhOwtv+IjZO+4zu+I8vqYCBQIALkf+M3fiMnFYMW7cqDjsNn3ZQXDf5LA7mAiWJ6MVQDYpYC4UcAkAaG9muLzbC026RmTxCAC/C59Ci/A00rEFjj+GF5ezQFrn/+z//5BC0060g/ZZTBm3qVYYEtjWROTvggW2upyVC9QNA1EPXYTm5oaKs9SWygdXestwb4yuNLG6QDMEAgzzd+4ze2u+66K/tM/dILwGfJh2zsk2LgayuZCngknz/8wz9M2nTBxz7qJ3PbA/hy0rXDQLdSoyZpkxCgLd+ttpk4fEGKN7I0OUwLZE+m2qi/1ElffvM3fzN1joWLP3nIGMC4Jgtn9542bBFgy95vD9351m/91ownk3MplP6WnptUL4i2WddOPhVPZsa0MZlPSKO0Sp/VZvJKfQ85lq7QPXKlE/TGIQ9agLx0Kw3FyLc/9ubhTqLTaOgvAdj/1b/6V3N5qbL6El1H1TWLr+2KPy3AB6ll4au4g9jtYuFN0AkGAH790lZZ+52LJ7kdET317FSWPKv893//9xPQdSDAM/u6pjQ6FyVnn27reJ1q8PvI47Of/WwOLp2o8w1qeQwmnV0WKEtQvI6XB210fvu3fzvpyKcMIKRUpWC+1FuNe5MJngANxfye7/7udmFYcDUISpL4mAZo4kvB5DVA0AE8//bf/tucvAAJvqQ5AJU6WUv4IgOg7RromQyVcWZt+SrSRIZG1rGrs2ZThtoUbVHu05/+dHv00UfziYgLy4RjkgOEBmh9Bg84yYps/viP/zitOXUV0ErTfrLSNvUq7wnAgJNPnn379mU+MvDk0fcjJ6O9P55OpMuLJxPLZ/70T9uvx4RsItIWYG4HRUAPbAAuOeob8iFXm4mRzR/8wR/kZA3QWdxkB4zpA7C21S9dnBW0z6EcOfy///f/2u/8zu8kX+LwSeaeJIAId4InK20vK5JsvMS8JybMBwIEnwzZ3BUTKRfDNF2ZxctbHV+86gPt5mK9I4ywP4rN1qRVPJDWB5566EPqSTBf5We1Q3lHZEyZo0GG5NoHZXnI1JOt4FqffikMwF/5lV9J3VZOPmW9ZP6x2LSNcSToN32mTPE9OY4z4zb/2RLwq74+yHcAWyk7ewa8CfaqjYsE+ej447F9wI/ouI2+mzpJAVcCBw6/9Eu/lINTB/ctBZ1RwKvj+JBZj/bKMDEAYekGrLw6uQY0hSxFeT2Aw8CnAFwyHv0tHTNhAAZAl8AVA1v9QgGYePSBH/qsXHTQYFmfqaLgVwBS6rfTIRDFA6D9tm/7tnyCAPY1cAwa4ASonau92sr1BIC0Qz4uGAMBX+SpHSVH8vYUYe8T4CVNHiHbH7wp27eqTBA///M/n/IDqmjZMlfH1gRZIC6ezMmezH/5l385B5bdGslLWEt9ycuT/ijnIF8TEV5/Luq2OyMAZYnfGT7Y747JFujrK3nJj17oY1aliccvHiUfQQe4PxJPL54YyF+8tivrSU3fzgrko2686Ctn9MV/OPZkwY8nz36/cjXpD7pNZvRGHdaK/2lMXiZbu0TaKnhlZeTjnsXA2yyeDmk7HQGaXHe2SxbIVCALsmWs0FH59RXdEa/stEAH5XEI6mLscC+qy1H9Jx1dbkg44OmUbMlcOROEj8W4cDylmlzRl6b+0jVxrncijAE/KwxXiGZGc/Ot+ma8pbW1QbDTLtlzcVvaiBduIU8D6kA0dJQ58oTvLH5fMLdByFUy8bIx+K8mdKIjxC5PPjLHNbu5ezHZ5TidBnt5vB47derYhahzOfbTWTscfsi23C7cfWnsnrk7+AifZJKMmToHb7AaAq5OTEFHp+sQHfbx+HECnchS12FethigSNhy1WDTQQb7T//Mz7QDAYzPRAcDJoBrHxHuFmAJNO+Ngfb7MfABoYGpnHYCSYD5Uz/1U+MBTFmUZR0b+CxAj+CstEdiUBq0Lwcw45WyUVaBu8ng5yriKgC0BnT2I+WJg/zHikQOcZiw+MEB5X/6T/8pabBKyUb9f+Nv/I1UUHxwjaSsohyl5EaivCxFj6wUW8AXGQn/4T/8h5TBj4U1U5MC3gW01Mu/zaUARIF+gRd56gd9S/4sYnWQgcEkDWiLLz80+QGv/hOIfiCPrC/kDvRXVlbycVo79Xl/0JaMnFOvoq2CPvzxH//xfCLBI3n8rb/1t3KvFPKRnzXvqQU/wPfbol0//hM/kROpPAAH0JCFCVac+slcvB/GMMF6iU5HcmxFmQIE5fDEqv+Z0D1Po8W/veDxY2ImF7rhIG/9YRtexgF9MxlJU6dAT//7f//vCVb/9J/+0+wTwGjipB/qxEONmSw08Uf7Sx/zeiQ/9a/HSh3j3PXmZjcOu+0Vjr/wPBXtiapOuFUXOQnq17fGDJ7RdGTfBP+e0PQBHRWvTfJpp/FRcfI7yABteUqHyPCf/JN/kmOgJgR5o0AuMCBrefFCr7SZscCwM2ZgBLeueBOvPA5jAT8F+Gjip0LWMeKx4r7W8xjwu9b3yXUVmwcB8+7FXfGDI7E6IzYt01A+ns6l0t126B8DJTp3zHJcEGqFbEtEmAxcy5eNPF6iss48g7H12B55c0MHxctBE81GPNIvxKBaOi+AP8Bl/AgCHNVy8myOLymEfWU8FpqBgadBxOoFNA+GpaZTdKTOMotbtmim/sHwxX1jgPR7Y18PAARsdSJFMei/NQaxpwaWB7CQRpEolJ9Xc0bH47zHPKsNWIzAyoAGzPYFNwndHf5qVh3fPsXGiw2o+Lq5DAC1gVwKX2ARzctQiqMd3BUGgV8P8oSBN/TwbwtbyklR8SCUApZVAlwMHvzjwUtdbSNHSu/AM4uT66oGInr40j7ACCD557nFgPmXw4J6LixRbUDLD2UYqAYToOU+QZNPXnvLlWMAsWY9YZhA0FIO3w70pH8x+tO7j/z6keJMhJJRRXMHkTsZ453s+OP1lzagzYK3RFngdhNs70uG3u0AeLLVHjS0w3uFAnEg/dHoe+1Kyx+94FcZslKngyvL+x1POuTLjURnfiwmVX55OupQj75QltwdXAn6Ck1PZvq++gtP9MpTCb3Hn/pzTBqgpxEm5WbEV1FizjE+oiN+iuhPo5YTs2hnyad0yhnvgr4pvsSl3o/kOZmOP/mLsaKjjDFFrowJE6Q0h2DCYEAZ08qLpw9WmMnLeHkljJb/8T/+R/afpxDgr7/ghTL1FNCXURI/i3+OA/6MSlIYYbVTMsvd5mOnyvUAW5aNBmcHRycDfzM52e1E6DpJP3VPJV6wnX/e+WEpsc5GTOAv7mPop4C7tnTcuXZQHpaI9p0XQGJVDb/gr/3ar+Vjelmu8jk+HAMNcAD1m1ZWkhjlEHSgmq8OIAeKANHTgsmjb+0agGZ8+4IYkFZOeDeAjkFoQCp/UQxATwdAykAHjlbTaLN7tIEcaxlvyhrYpezJ1MQfeVh7FNFTQlkzFNELpX37unXNeCAfA4Yyuy4FBdZ/+S//5YzjavEko16DQ16ftuP76pCjvcKBMvBRd00cQJvie+TdH64FLjIvME1A2nJegKoJDrgCSU9hH4lfNiI3vOkz+qe+2hLXk4MnDxaZ+BqwBqA90/lzyZJFTtbaNBnUjV8WNXnjuWjhw8SjnUI+NQYPaM0HT4KBblLyVOLJglyKprpNdixvQZp+rj4NhlJn/CKUoB+9M/iZn/7p9sfRz6Vn9OuvxfYCJouautCSrowzGZG1idwE5N7TF9mQKTlrv0npV3/1V1Pn6bV82gy8psknGXsL/2if/hDopnZr46wAp4SSjWvtmjVG+mlok4U+9WSm3pKJ8g66Rc50ImsK2saUp7WabLiDGAAmV2P1zjs7F1wZQx2O4uzshy0Bn2xDPG1vDNiLL4hH7peAQLz0Sp9JNDpVbmRJM91zTc9ZZjwseB0Z4teTYdXHVsnxBHLR+Z3vt2NBp3adC/Ang46rg18zB3YouZd1Vp44SrEMWME93y0fNTAB3Dq9ZvlSKoriBx0+HgPo4XgEZ3UqmwoQdVFQM/5dMRBvDosZHxRGedfyuhaAhEd+4IeOjaJYF2h52gAI0gCscsprS/GcREZ/uA1Yu1xBwN7gVi/+vynAbGVlJWmY5FjQxYOzNpWSAwtPAWSBDpCtx2Y8mIhYpQDylgB0vJasXaODPzTr6Yg8AGyBaZ1NRD/8wz+cq5MMEOWUz4//RvISp79YzMAasHMVaZdDP7lnIaNXfaH9kwGf8nJb8X2TA/fapdEPnubwXAGPaJW80dMnJkSuGk8dZCkPnvHmMGkJ4sjWqCEX+SxtRVcamVqJ87mYQLVB++kdWXm6tIxW28U512SKTtINGmjh2coyuqK/UnfoTxzAzCTA1YguPRKP3smjJtl+y//oI4GMBLzOCuSZbYkypc9VblqZckPJm5gQ5bhs/+E//Ifjsalc9R3Xo+2aHw25crftD+OFAURvyFE+fcANvD+upTEAf+RHfiSfcGGBfDkxjdo1ja/tijtZ4ycoA0uAv2f3rnZhNAK4bq4FyC6HUvHNpewhq8epEchO0Dgbt/FwlZwB94V4H7BrcSmXZ7keMRXb68fPlMlFkD1hlsLgizLUYaBkiHI6QmdJc9b5DpapQQJkBf53yoFmWkfRuTrQIY3V5HFcR4uT12M1Jdg1AjB0lM+OH/Eg3YEm64K7yRI0A7OAjHsGXb+wAziL/3770K5gYvv85z+fLiVtkQ8/LOQPxHLPAtRylwAccgAkZIAXdbAQ8bqystLuDGuFRc+CKT8yq5X7y/sQT0LAUn6yBD59/shCHWSKF0cNEmduLmvU0cQPcMMHGujhp9riyYwbyYqrhwPcpBcYeiznppE3y5dQJs7qNLFylSkvvxUv6tef0sUXuOIDD/jOc6TrN98oXBPAf3/IRZCGfzyYEMnQUx9a1WZn8il5A2hPGsrJ64MxfUQe3C/VHyWD4s29SblkhR/Xnii5ddDUHk+J+oWVCvTVV22Mhk5I5u1xC25M9tro0GaT4axAbsZL6VzJelZ+1nb/fZ/r0nNlEu6iz9WbwTnuyfKpcP/dE+PL0x3jRV+TPVl7YmX1R8Ycw/pH/zGaGGLqdT7bYcsaRrAaPzay3M7bFR/J2JMeyEbT4/dFOn/8yMoPeyUi4jjLoXsHEHyEpa86L4uXFmKlzK74/Bpnca87NrJPsoumcqTTUhFGZ4ObQvgSlg/ZYKRU4gpUDBCBIhl0FdDRgUDc4KJkyhr4LL5SNDSPhpVHEcQJrgU08ORAAyigI/CdW4OPJhqAgbXokfzVAM1SfnmlTwsGtglDfcDZQNEOrjruEEFalceDoF0O/FU7nKWzCrkp0AFULFp8o82SeTyUHq/VVvRc11H1yaOMeNcGiTaRe8lcvDrx4uzAKxmpW/BeRFtq2WXRl2ZyUYcy3DrTAjose3WW7LUNLw70yEE6fsThQ6gy+g//fp4vOjPjq29ZkNKUkU8ZaSVz99LQBcBeSEsnB/5hE+O+ffuSN/VLw5NyJoMK3imgrxxa0uhhrb+3mkmdypngrTIy0Wm//Dl0itjb6RztLV3Cv+tyu05jU9+RJzkJZFLlp+Uvmcin/5UrGacuRn1k5iD3wzEGxcv77jDI7OT5j//xP27/6B/9o7TgGWLcY3S2yuk3Ey83pomWIWZi2YkwriV/jqybv4glBNM9auaMGgwB1csvvaJdsDd+OSZ+ecrvVSX4p2b4E2VGX7meXcajA4KX7kljPUA+BmP8u/ySy9oVYUlGagg4ACZY4lfNzh11dp+v6khxhE3JdYqzwVJ+tRow4oUcDNHpBq38FMPMXAoljzj3Bo98HuE96tcA9Zhphqcw+Mv8I9roFy3xDnn4eeulrjhl6wBkxZ/65c92uxkF6Vwd9T6B8uHH+aoAApaderVJn7uugWIQ5EuqEV31V1kA6z0EKz3dbFGPiQjAsGRZygUiWFFWQB9PJhu0yRBNQTz+qw559QOartHoH+KkAXOTzcrKSpYV79AOsiJz9wL6le6sTmfysIJGujj1AkS0PSWQj2s0nYtXNCu/PNKBgC0eyK/yWSCQehP0J/so46Nt8gIx71rwk/KPeGft4+Yjm5KlePUpN84bPLgX5ENb+ywO+Gi8C/HdQ7Y/0pXxFAGEtBHtSd6SUO9P0U4aI/n1kk+67Oo6LvuTMkxE9Pt3fB0yIw+86U803TN66Bi+8dWXGcNG/0nXThOus3zJU8loVL+6qm1VL3ryinco7yBTfdzPL/7y6B/vuP7BP/gHOTZejpVkngDoKFqC/rK44T//5/+cshenXY6qN/mLes80RBOCRtfvHa24HhEZA36fqEQFumzRUHbz/GK7YM8F7cK94cffDE/QesTGChkA618GL27Tj9/dno2/XU0xy8d7BLtmasniXKy0ueyKtjtWEXXWf+SKNEAec8NpBwIWstxIajqgBF+dTjSVN5UgOnlaIGz5KEWVEaeMjnc9DpGv6pGOk366nJSEkvWDMkCp+JlMc4+OdhgYBrRgwKhHGhAxWNCgsMVV8SN/xbkWr5zy2sZ/fhnXVsQpXwNOHXycs/hDK7dg6IhmWZdoo5FyiLqcqx+kTwv9eg2sahteq3wNtiwfdYxDXKuz2iQ/gFCnIF5bgCJ6ZFV94V5Qv0P/OFzbYK0mBXnEc59lmVE510WjzvLqJ+66TI/7yoc3R+V1nrzvp1U5bRC4B7m+xvIc8eGe4QCYqnwW2OJPP+8ph5p6/B/VtwXZ6clRlmFAtgKe9an3UhZIVP+qo9qrrfTBfdYdaZM8jO9HMiLPou88Ts/Y7k/FOdcxTo44i0h81WwlmlVYRdO5eGMYPRAf9XlnJK5/jGmd6cVYrccXHYXR7VTA79cRzQlrPmay+V1p3V912VVtz/LeQIwYrNbfx5r3QtWJKvpktvEaRwGY3iPECpz1o6vtvN172o3XXZ8TU7d1cpcH6G+mT38bqz8DUqUU/QF5BsXHWUuhKDtaeYRSOc8KVbd0A8EyTwOjrNwaAPJ5vC+aRa/Azn3V3z8nYIwyW2V0Q7hRypJHC31gx40ELHciFM/4LNngY1oQK00ZE5Wze2BiAsSzA0hzwZEbt4c84gT1uFeX66IhDmD7AhcNNPWBx3svfmcF5dARTM6eNN5sQKcONFyj74mT1cvVUfHFHwByvJ2DfiN/B5ni14to8QyL6g/XJmWrwJy1kQzqfLbbyE3Db+/lvW9XuIhr8mcw1OT0VDx1+4DTk0e/v/CnLdsdZiPGqCbvZf0Qcdgu7fw9F7brrr6hXXjexWFJhwBj/bsfMAfAoVLbzdtMeqm8MUAD+sIdsBmPUJe36665Lu5w4hg1y+BxvEWhQCc78mvgQXmhXE9JbwQys8gW6EpPIIozFwulq7hxnhH9vnpNSi3rjHx1VtbLM0rJgro2XDuuHZXHBMBiNNnsRNBOAW8AAR8zB82I10ov3p0vDisYMJYbgO8csFhe54lFAChVn3vX9VRgMHupb7IrYJJ/3759ueJD/mmh6OGbtW3SqGWF0/JvFVf9UGd8aZenjFoKKq0An25ogyD+7Ri0oeSEP5Oil6P1hIpvfSifdlphI41OCDvVLjzqczxYIcWVh6fSTWd86WPvToy9Pm9jfRyNsfF9T2+nxmUrZ//ZEvBxMh8uk/gbHzbtbddedX279KLLYwIIFwDQD8DvLPwQdICt46yGESoZCGpajtU51159bbv0wksS6DuwP87HW6m3NVizI0eM6KSvNfQV41S0yrKmXCw64FuBMgIjZ64Hyli8oW9ymQwZP2qHttXgQ8c3A5RcnHw1wFguRXeS3nbeq6OAQN1A7JRBG6ccynha4aYqGuSIvpeolpsCRnV54hIvvdpNFtIt0fOFNB01WXhHYqWV8+kE9NHl8vpaQrURjepzPPiaVh3VN66lu1fm7RpKT/Gpn73U5voqUBevLYwQq5lqMULpY8nhbLcPPwJZ4sEKOzzRKZMqPcGTw6RVci/Zu8+2jNqjTZNH5Zk8n6ptJ4/qk3JH58cWC7ZUAPKXXHxZu/D8i9pi+PRBbq6UiXMHYzuhKNHRUd981L+xHm/Sl3e1q2LtcHhVk58Q8bgFBa11Hifs0EV1nnNdv5mqdahQHavj6/pU9AwOATCpn3JRNAEN9wb5wQB85xpMmeEUf9Cql9rKoGNCcV11iqPcVsvMWhFziirOOIk8tEmotrou2bnuB1pS+fpnA5UbgN+VNSwN8JJbfcPgEdzkWa6gkqs86vOi2lJcctV+A93WGZbglfz7vNS1uirgg/xOlb/ybnVG16GP0fSCHX19VTIrOUkX+rxsRX8n0/FH3vg2sdrYzvYa2ibOgXeTmpfTtZVFtQ+v9RRzNvlWH1eSQI+8S8C3xRteyOMRr3Sjxt6kzNGYdbxZ3vPzqag7Rkb+j1MHLuIA+kKcN47FxxtcN6sb7cK5ve22a29ply3HOuAjC2137F1z7Ejs8LgaX5kuRyPiq9yyr2MHhNjvxhEzWUwaVm0aJJtLATRB+Eis3XfeSD97dKQ9cMJNtLDuHPVFnfnEkAxy4aAdnboeS82C5bWja+2yi65oV158ddwHsGyGLzqfOLTB1gChBPb2OY3QF6zsBgMqOkmQXp00PmdKlyZdkFYdV2c0pDunqOOa0nnhqR7Ltqr8iCRCY1pZLmUQsoy8rGbBNUDo1yMeraQbaYJ8rEyPl1UPJRTnbM38C7EUsV/PrEFR7atf6UGv4rQt+QtF7iu7dp4qUHz1Ufzkj6yivfjRDkG81TxC1ec640c8uFaGTIpW5h3lKzBQTqiy3V1H17VVHXfddVe6A1hfaJjQtI2Fbw8i3zNUeTzK4973CP/n//yfdP+khR78WAr5iU98IrdmkLfkrIxQdNxLLyDQDmn8wa7R8+K4XHPyj8tEnmmhaDsLzvoGLfVok8N7CrrgEF+hX76uK8254pzjLu71oUUEMV7NHbGKYn3d+5DuWw5l8Cy/PpoWpFXbJs/k430KGXLl6Ae6o4w4uqZtVsbZLoXcSo7yOOpe3VUu5R5pZCGM5RqykCaf3up6rDOYKt8kj1VWOt5MsI4cU6M+13b8GoPe7VQdRVNaXuff7g+6+saBH2eyQEtanXtFTriMIoGSoxaEKCKxU4oR+a51ETUXhJfm4zPj2EdneW6p7bvyxnbtxde0V994ta3Gb8gusbbnQyixMN+PicdQTRImDCRR7ZiNWiKKu4B6roZSbMaUY0KQ4GnB8k/r+wVzhBBU46+D0Lt/Pv5ajv1zrr2SOydWPsRksbAZj1FaZbVQ1HB8xRB+RsTialYgxAql9CV48dqQHT86R0RU1SmRtAp1XfT65ZQRdDDFU08pYJXr00Gj7xrCj0kzx1LQcl88Vvk6s+KKXzQBvrrUbWDwMTvn14LhfrgxPnKq/PKdKnA14B0tIdsT9eEFjQI7Lwi3oiW/8inzuC59KbkVHxlfN1POxXvKKHgTUhYjmaN/vJeoyvH+7pPzROTbAlsSsOqtouA2AAZo2wvJJOmDM8wZwt4AAEAASURBVI/q1rfjHwD5zsH+Scr5SI//1tps7pyy5sZ89SrFZ/IXZ9cmHdapPuoHPl8vj8m3wFr+U7l+qp2lJyVv5RyCpcKWe3phnfKL9lS5fv3960lZGqc57ozuGIMMP+M2l3h7GdgLW9HuZT3hkk7XhGVZ4/74srVcJdK87Ab2Vsf4Glzot9t96SP+8ZF4pL30I+RR/ZD6OMrjetNkMJIXOqcKOXEEbeXUr7/U5R7/6qEzDuMS7wAbb/J5gkTDvbNyB2OytxBAnAlEu53RLrDPNk1hLEhmOPWoliUyJvNBqVsBM98uuvCitu/GlfbMa8+0pw8923btCcs6sNYHS/Lb0VJgjYc0I05nR/ePNaSbLcEwRrroroxylc859+gZ0VMq4C1mKY+ja+2KSy9v+266OV6yXRwNjokn1t8XteA2rjswQvNMQ3Yw5pLBMeNnRKaUevJ8ukTG5aLANA6kOwBUhh6vNZDrDNgNaB/u+LDIPUWkcKwEvlAfUblXhlKiXeUneaYTlAwN1j4alJbcKCSgosgGn/tzJaRMo/2A77vCQiQPv1fghS0rnzy4EgC7devaR5Ye072odWYl8x9z4XzP93xP9+IwZIA2WaApoFWHe/FkKAB7E4Z+UYas1UPONvVjGeYW0dEP+mBaX4mr4FqfOeNRGffqZHmamAEk3gUlp+lcJkoL3uNP0nGNroNxkmlojOKUqTj64dDOKldp8p0QlO9FKEfXfNxI9r8Xm9uV/56MLA4gJ1uRkPvpBPSLz3LRKVc8Sqv7us6ILf6Qb9HwAt5ERDbiyJjsyd2Y9C1L9a121IodeZRz2HJbnwN4bWQQcBP5IFNZvJHpiN2Z3G09EqNf5xdjZkvJeLETM9bifCyDvKE98dKT7dkHn2+bx8yS0dFRjfX6NZd3ClOgP+q8QPGMD3oseUJmJXd5IyKEoi5gn14g1nqX2OWJyLk4di/uDh5ubNdfGwNuLr60jEfGNHtPaOqo4Alxp3ejYxzByoi30yvXz1UKknR6PTFTwXuFs2yUIR/KMy3I4yjrrs+rOrMeeaIw5eHXpCR2gKRs0uVz7YMsj8AGvr1jKg3wTwvqRZOCUkRPCeIMSAFdyghEXM9qwzTab2VcDVQ8eOKpDeVY9SxKlrt222yPte1XsAxAAE2+NlfjOzZ5eg/gcZ1cbM9Qlmj1v3NdT7bZICY7faMcYHYm6/1h4XvCABbKq5+Vp6/wpr4KZC+I0zb5uISUkVe6CcBOoOpLwBmVKRrTzv068IA/tFjLRh29lcdR/LGg3RdP+HHfl0HmGfEbiR3sOI8Ouo7/uwPsvxA6awI0EZOLdlgGaddX/TFJe1o7xCXt4K0WGIzrCv60C/94rviig29xs4Jy+oSBZWKKhmZWcbWAwpf45C5Ff6QsIp82vRLuRBuuMdKMW4FeCPJaGMDFR+e0V8DnqcbaaQE+Y3kzGk76G9GI9bDYL40vW2/Z9+62/7mvtidffyqcVR0T8+GTDxFlR3msE+YifwkH3OdSzkDxct1Et2eDO3FE50a5jWh0B/gIJJmoPy6Ui4++rrz0ynbrzbeGDz/2AY9/5fYY5cyTuoQqnjen8YfQ+h2M9+yI0yjbz4KG0FeK06GT+UORDJoqP61c8anzK19exB/KWxNB+dttBXF7rAO31wdF7gcvv6xC8XLR4z1lrQHZz1fX6paOL6DkK95sb9wDFROHfW1YwCWHKvt2PpecWYsGpsHI0vaFqpe1/+7f/bv8vQP7A90RK3lsNqaNrDTfI8hbX0TrF33JP26gutcX+kU9VVfJoz9QWWvAwEAmXwEteYD9p+MXnoA0Hr0IJHP0SxfkL7mXPjlrl74ClBkiTl1WJdXKJPWhe6pQ/Z+0IyN9GetUtE2QlnUGPfV5F9GPr/bL4zrzj8pVPvWIz/oiz9Fop03pbGFebrYyOqyG8XsONu2b5C8r7v3Jukf8RQWZv4yrakfxRLboFS/Fd/HYIzu+lLf6zdiycZ921AQC8OmOvabojTQTunLyKGsfJv1tLP3v//2/c3x6ajaOPT1aXGBJJ1ciyx8NwNvXozFDo4utAT8IAHkdarWFHzHY3IwfvV7a024KC3vf9SvtjUdfbwc3D7ajsWomsL2thbUPquDz6CohfYT/o7gA7pG1Lp6VX4FLKI+kgwLo7v6F0z/W48SPaF91U7vlplviKl7SxEvlvbHFwvFA4UYHsiMFPJ5+6iuCq0POFOSpi0xNTZ9gdFif1tSMvciqq3/uK1gv65ivSq8ymSfazNVTlhYlAh62d/6N2IHRABRXZfaHL9RAWllZSWuC2+JUQTnKWQBk4yh8lPUCBAE+K3QrWqeqZ6fTtCvbwZIatVE7DVBA6yXutTFAP/nJT45/2Us6QHcAn35/kLElkOgaQ3RReuXpt6/AGsCUW8g7Ai+ClSdH8vaIbxfN7w63RS6xDKDwxKFuQd4KdS0Gn3bYZHFaituN57mcrDyRrETfF3hO469okot2VTvQLVCsuMpbfLO+lUn5jBKlFX+i6r7i6h59x5EAQXv3+9FyLg4AKQ/r3uRnV9X+7xUoc8p2RD8IxkgekV8foKlspsUZ+Fac8ylpZqn4E/mUoy9e9O+P8cVqF/Shazu3fm/8DgHr3TctS1G3ek3AJjMuQnk8JRpX3//9358GmW23TSB27eUu8sSjLnSXYs+zU4WxryA7KkF1BJWdLIJxQhtZ70HQipKleFkansN2ye6L23vDyr72kqvb3JGwPo5ajUNgHgmiUHwUtRHHZhBI2UYU2DYpbPpFnDUXo/qSS3kjLgA/So4fseSx+mYhtnSwrcPl51/e3nfL7e2i8y6KKgJ0WP31Ra2K4n+U6A4TFAJTAiWtoEgpK8WkoO5TAaITXOvsHLSRl6VWAxiNSif4flDGY5e8OsS9c+3vYQBMUyIcK4MuJZDHGX38uVYWrYqrPMV3FM7ylgbKD5AoEP8y2so7gBn3hJeNfNMmA0qXVhmQioC2gHYecU02wEcZG7gVTW0D9sBKKD4LFPCiDWjWZKAN4mvTM3VIk085/AiulWPVSit+TK6sHHEOcin5OUtHz8AW/FWfUDScla12yMuFY3dJv3z1H//jf8yBy5LUPpa8tpnU1O26+qDkhQ/11H0BSrYh6qpQeYp35Tw1+B0AezvhTVnx+uvBeBrzAzYARb14BXzoTranaMrnRbP3ArUOX/1eUHuys6+RoA5lkk7c9+UkXh1o2c6ATPFVG84pL09kyvLy0hFfw+pDeYFbjZPy+RfP6nYI+tq1NOBHz/x6F/7RqjImPdsNf1+4cljAOfxHfOCl9EB+oc7i694YxZO04kFZ7WRB04NKKxlUWWdx5CRP5ot2og/sPzv6tTH5AL1xxSDynsEYqfaWnOUr3mxZgh7+BACvrppALRhAU9/jVUjMDbkLyU+eXVulc1JI6JOlS4kT//zxF4NRKD7EshrHVsTXX3l9e9f1N7cnn3qirYWlPb83tnedC0FGn/mhFIC8HnmBfjxwdrXCdNZ9TgwG3aiuHjBHajKI71zzbyVP4PNi/Mzi+959e3v3Te+OCSAejSPegOgAv+h0ZcdN0/ZKGkWW0rotxXJNgVkOHn11ACGWwrgvRa215dXByvavU1mCL7R1hhmacpdSAd8aLNLVYTCoLwcGxY8yaErDr4EuyAPAuAbQKUVzpgjSKYH75CPuq41cFB4HPQqyWNWlvXjhE2Q5sig8FvMd1oBDx4FHPAGY1eCbpWWTL24L9VFmYOhzco+i+C7+8F70xEnTd9pHkckB7apDvHzaZFBTenKUp9xVrvGlXmnKuHdN1imrqEd/FV31yiNIryAeUJEJXri+bLUMaOx5Yntb/JNVARygx6OApkMeR8WjSV7oO5QRSiXFaaMXxdm2KKsdHt39ctrvBLB7V6A9tUOrdyb/7b/9t+TfewY00aEjng7UjYZ+r3rVUb+cJp7MuAXoA9A32aqfPigr4FucQ0DLShH3ZFc7Qe4PC5bMhGq3PPJb5XR3+NwZGixxuimoA0+lE+LkV14cebinq6xaBok194wT5eipjfv47f/CX/gLHdiPeMVL9U31dckE3+pG2/iRTp7Vf+IFMtI+46R86Vx2RUcd9EzQVnojzaEOP0700z/90/mrcMaCdPWsrKy0H40JyjuzYCLrpZv0yhYMascLmn4MxzWL30IITzie1JUtubmXV76lJU8JKPSeRKLrSteOazuupwTW8RyfSyeDAOkYbFF8KbZbWF2PX4PZdUF7777bwi/4VHvwsa+EUkZjdwUghYUO4oOPyBdfIgbt+QUlO8t7IZb17FqOrxIPUZKIGwk51CXuO2YXo9PXV6PRkXf9WIDN+mK76tKr2kff/7F4urgkGhg7UMbkY1no8SaNmhb8ViPHzEeuftCxBogOooSETogG1othlehwCiHIqxN1mHQdLc61jqRAyjoqv07w25YGlrLo8a0bWBQWgKnbAJNWNEpp0BIvqIfvNXmKur0ElN+9AaAOCq4eHS9oPx7xgZZ4eSiLQeQnGA0gFir6aLBIigbQ1373eFKXQ73i0fBDIYDxteDBBMHv/EM/9EP5Iqna4az+pDNqP75qUHo5VR/P4BufxbP69JHynhzEC87yoSPoP/S1oSbGqj/LRD7xLGKAqM+0uepyFlf+dfzwE//X//pfs59KP5xNjOJZfvv27WvXBQhYOUIm9IIeOfBT18txXbyrK1ds4H0kG3T7Qbvww68O0A12L9b1XwGZydbv0pKjve4BpPpKXuqXVzuVl9fkzOKWZ2UlgOdHfzTdIGQiHx7JGh0WfEQkHyHovBavjZkn8vHLkwO3E9mLnwzq/qN456A9dCq3GvCxZNynURF1qEeb9Rn5oKW9NeHyg9NzcqIT/N533XVXLnn9ljAw0j0VFeee83FOXRvJlqxpCd5q3Oor9dFl8tgfExbAVb94R+pY3G9EfX7kB80777wzDRnljdtqr3Jo0RvgfHdMcD6+8xGevGWhs+j/7t/9u8m3eH3nTK5Zd/Cp3qqfYUfv610R9428FkRoizr1pTjlutERRGaELQH/pHIhObC9EcAP9IUrLr6ifeyOj7SjUfFDLzwayhx6HP2+GLPNQqzooQNrBBkzz1yAPnfP4uJy7CgXe6AfCKWKDCYWwDxmOfKYJYB5PjDENwDXXnFN+9j7PtquDtBfiocT4LkYk4awEd8DzAf4TwuEJxCIUB1KwKm4ISwATJEopz2qzc7uS6jKyutHPczygE3aBTHIBApq0MhHgdTBaqXojwZAoCXOC1F5WD0sFjx4DHXoeHWIo/QOEww6wNVgxZ+BLZ90CsACZUGw1lg96CRAxYAaP5kFj5SDYnAVsIjwzG9PQffGQDL4KP3doaweoT8fj//8xHyMlE5Z6XiwYkU+HxkBQHm82AQglsXhTz6AY2CrW5wBacIjD/WTw/4YbGiQi0P7DS7ysqKIzN3jwS6Ee4OmwSbgCS1gYPCYFPFNZsqrV1n74QClX/mVX8lVNABDf7GOyEteg0vdDnxoKzpkSa7ao16DV98VACtfh7zoarcyeHYmH9a5fO71t7YATPxXO5yTF/zEgZa+0j79bQ0+vsTjhW7xafPpmsgBSvWV/GT8SOiOn3jUVyYJ8Xz2XApWtMhPTtVHKdj4Y/IjC3zgkRwFEwOrV9+RtyWrLGDx1S+ZcfSHTLwzAIB+GARY4ROIkYVxlLoRdeAXaHqi0Vb0tZdc0EHf1sPa+pF4KvFzj/X0VD+MIi9e8a5N7gV9qu3Gp3GjLpOVl/F/GuNdPFnI1w/az32m/33oVS/yqw+kA100uZv2hz5bNlo6SC76248h+SbD6i3tyHbFmNB2NMRV3fRS3JMh45WVlbxWr+85/Pwq+sa7caqdRaPP97Tr+KZqE7SGNPxhGZaLBRPAOawtcXJlThkDbKzEif4/sHYwXtKGBR8fXv3p5/+k/cG9f9ReOPZyO7oR1kK4XRd2hy8rEPvYOoWKD34W7bQ5Fz+mckE7f/n89sRXn4jHppxCgqqnAjxQ9uAk6tu1EAP72Hy7dM+l7Rvu+Ib2zR/8pnbV7itysuBH99OLa2ud5by8DASyITl9xE2GdH/ELFTCJEhCqsFVflqg83yAn58rowg6ChB6hOV6MG0YsDeE/+32WArFzXDnnXcmgAAbyvJYdPgvxeMnEKW4ZniDUTngSykpnfylOCxsP24CKPnYBXkAFEXbH/zgyWA18NRDWQUKTfFsXgbI94VFSEF8eOJeurq1vQavwWDp5QMjC9E6cwPYgJKGtvwmAPywMtGSZmLULhOZAUmpV8KX/V3hFjAI63N2+QA9mgLlNrDJHk/q5E8mH0pLRsrIT3mVRVsfcANoE39m/eC8H/EmC/lM0MDEgNOXgNhESa7qqsElvzZpC9kDfe4MPGuburQ75RP94/d6f+InfiJ1oXgv8NAOh/wVR776reL0sbaQv0lav5kIPAGxdMkWDfUqp15HDV70Sk/J2rsET2UGu/iSlfwOhojdOAEqudD7F0Im5AFA8UNXAM4P/MAP5IdlQLfqwDd+3At4IT+06YT68Mnt92uxasQqEjIHdmRcMsnCvT/K11ird19AuuKdlVUXWbjGpzboM4FBw+/tx9bJjsFFrtpIt+oFNJ6LDzznuAvA97QiDwOC7nl6A+Bcc/RZu9SHF3Loy6J4k45H8tGPaOOT4ekbJPKlsw7p+htw49ULVoDP5462Mpawol3yLzkU/8aYMXFHuMIYV34O1WZwv/iLv5h9zIAwWXn/Yoxqz4XxM7RpNodXptqSAuxs3mk+/Ezu/ZHT0QFpJfCZW55pH03vS5fj33ve/Z728tHX2j2PxIA7GPugb4QfcD3KRjpXkHWWuconiFivv7yLvyqULAh0q3TUEULIScdV3LPyo5ZbV25pH7jt/e2S2KlzKf55UevFcVBMlmrQFX/pheqSRgpQKdGa6DBCpSiEworwO68ASIfqKGmpcHGvY4VoRgIJMHkorCbKKb91sKUgrB0/aoAmcKF0NXOzMoUaSJTPQdlY8ABIh+KN8rBsvaSikKWEgMMgoCQmIw4xA85LvK8EePqJNTM/C45VKaQyj4DEtUHnpR2+WeTvC+D59QBMEwxLUh3os2QNbkpLFvjSXryRCeU1sVC4jwVo3hZgI08NngIIMq7y+FEHgPaYXG3VfwaJetVBturQDyY6EwO5yUNO/MFkS8aecH72Z382B0eVBRDqrUkhB1nQLqtUX5uwTQpkro39AaLP6reE/cj3/rDagD6+tAW/1Sfa5Fp58fgsXvGDB31Y1hhLUv22WzDZkBM5aLuzowI6ZLCyspKuHTL3VAbE6U5kzrrwdV+AOj1CT9APBZjoAHrvV/i89T3AqL6q+qsdVb/4apezdnCz/HbwQO/QrTaj5ZgM1Sf605bB2qks2soro14yr37ghqGj+lH/fPzjH0+ddl9jgNHClaa9nhzRENRXPFWfmmDIyNLjX/iFX8gJsC8bvAFvOpUyCFp6ATB7CiMr5fGKpj6R11l86ZkxB3zppYnX5OTYt29f5lNGXdpdskXTtUNAXzBReJL+fLhMr4vJzoSnrfrPxnz7QyfVJR6N8v9n4Rl/ume0ExJL2UbnAGN8pDAJNK38zrIB4svzYbUFQMersnbV3qvbHSsfaK+9caDd/+gD7Y0jb7QFLxGsvPHD51F8PlwvgH85iMYDTKypD1cHn80CoI+kyNrtwG8SCDiP1YE3xG6Yd9z8nnZdbNy2iM7icR8X5QH6JaRxU6KurvtHvI8T4iLaIY2QDF6dY+UFWq6BCqXRZofOkVadrYOlm1GVE09ZxXvJwlovC0RcgZ0yrnU40MSzOErj0VbdFFVd0q6Ix8BaUaOjpSmvjOs+HQqHDqVhvRo4eJffOXtzpFCu8YyGwbRv3778eTaP2/eGcrEKgZNByRouhcYDPk2IwNAqFZOF3SUNQjxnXVGPa+2o9le7pANObUVLwIs4MnStfcqqjwWqbejUoPB4rE+UEVwbrO7V4yhQ0Jfi0RTQr4F1SQxiv05UvDkL6nZtYmFRouHdBiuZ9Vb9KR/etCnbHmVdr8chTR8XT/pKHu3wFOLdhzx4AQiuCwTwkPsrxVm6cowUExQrUf8+FBMg0H0mDAvvm0zOfl1L+1wrQ376SB+/J4wAv1vsugwBvKs3eY5yxQM+KmS7oj3aLF0gFy9Ltan0ke6RMVp4ltfh2lH6WbJCB21yVh9eyyKmu8BS3xtf9EQe9NRZ9MtC9tvV4xDXxrZ66FPxgU+yUZ9JHv/oFL/6RTo+BWnutclhrKOBz9I78aWLtpv2y3H6hnzxb3LWBmXQU96hbz3pK5/3o7YxxLSJXAR8Mtz2B7Crn/6hY9IgD0908AENq9ZMft0LW7iVJLo/IZ4olmHs0oluCSmZnXVq5ObOsaomQ0+gFVMU4j4tZueIe2PuUHvg2Yfbp+/5dHvoqQfbwfZGW98VShXunbWN8InHxXz44y8/77Kw1i9p9z1wX1ip8Si9EJZCWP1ZZ/yE4kIcoU7t+tgY7Vs/9I3tw+8J6z5+bWs+/EibsUlaQna0SofVUYIasTg+4WtaqM6lFI+Fy0Sno2U2T6UZCb7oyk/QhK/TD8Xj1hXRocBGp8rnpSCwlJdyUjDxznXtXp3q0+nqlAZYdLJQA5erBR11VMBbtUhZ7UNPnWhSAIqIR9f9PLNkgTaA54piBatXOwFcWVJ4o8wGIGUzoApQi4eSVfFaZ+mV5tqjKDcOi03byVV68ar92lR06xo/33nXXfkuBMgAdn3HcisZ1yBCr18nGnUARSuLPho+UQNTvHLqM3g8oitrcMr76QB8q2K82yFj7QZMOclG2fLFS9MP6GmLoB+0z33xIx85eiHrp/DkcQjy1VH3KYeQSbkE0Tfw9Rc5ck14/EeXTpGLvgKYZQCgXzxlRRN/sk71R7sng/rQ1S+e0LR7MvT7Sj6HOHS1G07gHy3xgj4jd+OnwLTfjyUvZRx1P1n3rPgqV31rfNJv/YeH4rPy9c/aW/ez6Bub5Ip3Mke3xv0kj+77/dpPx0vJZDIejzkWw7PgSUZ9Jkd10avSrSwfYu36rxAiaw3Zd1TfNOAXU8VoMXtsca0daIfaY8891n7/z36/3fvwvQH48cMLF+1pB4/EdrGxlDJE1K686KoA/Ivagw8/1A4cfSPdOgsLAU4xyWysBbOxXcMNV1zXvvObvyOs+3jkXj6v7YmnCTvprMVumqW4Hv3iJtmpuOKtzsVb3ffPOpSCVXA/q3PlKVrqOkEZosMIesyDDoz8fXCuOsZ5RvSS+6BXE8qs9Crv3OejH19pfRriKM1kW/vlpAG3kmU/7aTraJv8/fa6x9Ms2eGnBlABG7qT7XB/KjqROJ7slJ9spzh58pR/uz6Y2i75Rv2IN3yVnNzXJMSdxP3kZRmXBqvKDphcZ9rrAIAmBgMT8Lr2OA5cTFLi0GOlvx73XAxkZjnkP//n/zwtuZRp8CNoV7XNueRSZ3lKbyufuOK/QEAcuiYC7evnlSagKfTHknvx/fzVx+Iyr0yTYcT/ZPSZ3FcbJ3VJPB6mhcm8lYc8yElZfSpfyU2eTtqVO9p8/LJLG7VH+VmhZFSyx6MJpuJnlTud+Fk0qi7tcYzzBZsdp31+Q39GYjv+7HY6tU/JM64o0giFb31vbJkMrD902wfy5e7+57/ajhwKf/laWLYB5vOxsmZ5LqzfsNS9uD121HrpcFWseqQK98jS7nbpZZe2j8TKn/fdenu7eCn8q37DNp84OosZK+ru1z+FvVNGKdvv/AIkg2VaKKXSzqo32xwCd9bRlUeHTA1kFAqofA0g+dwXzX45k4DQB8l++uR1tWFS4dA+QTEmCmbdkacfsj0RR3WKN+1SBytGmGxn5cvEiT9Z/ygODTITlKkjIk8YdJlhFFcy5let1U7S8VD1Fs06Z/n4I73ffulAsOSkz8UBataapxdbRn82Xgh7eQu8PY34wtYXjx7Z0VN3X1/K56t9XvxbtcHfblWPTc9YmHTO+5c3oi4vY7l4PLqjJ4xlkXfHZVxtqDz1aF9tEI926bT2pI6N9HKS7oj88dNE/0tAQzmh+EPTE81kqHzi+9f9e/SEOhdPlb8/JlxPxhcPSeQ0/lQ9yjnQPFWoOrPFPb3Un9MCmtUG17kqboocq2zxU/d1rnbWfZ3lxwup4a3Gmz4uvZtVtmj0z9ORrZ9jxvWsSvIlbpTZO7+n3XrDLbnR2toX1tpXn3kiP7ZaPRaW1FLY+DEpzG+E73Xp/Pb66muxRXJYgEfDRxdLPa+58pp267tubR++/UOxhcP5ATAxS4d+bcZLAB+BCbPqz8Qz/EOIBIimwdMPBF6d1LeSxKXw40wZCL8/0ApAovAYwJJOTxkoSD9UXf224afqr3Qd71q+vsKhVTTxJr2Oiu/XV9dolUJrg3vlHYC9k3iXG71+O90LVU+X6+S/44E0anPVU/UqUe1zNtEVzWqjc7Wj6lXONfpZRxeRcS4r9NtYcdWOqDjpyqO9+s4LURa9pYyW4ln98vf//t/PlUiAn0XPajcRq1dI/oIXfeawCscKI+vOLUP08VAt9zWh4BtoewKo0G9XxeGrBn3F4dlLunpSUE6+kjML3BOYNtqXKhJO6McxndFF1iHfaQR1VT+ckD3q7+D8eGy1p86VkvwGT3SseO33L376ocrXuZ92qmt9SSboua4wi36lO/dd1WNd6WeI65IDelVP1XWmvE6QHt+WJNAtGaH9Zugfl8CY/JlflDJiIOa7APIQ1ly8QFu+pL3rmpsTsM/ffWF7ZP+j7XB47PfMxccjC/EyLZw7F8X2DAeX4gefWVaxBPOmG/e1D97xofbufbFO94LL20b8yMlS+P193btplU8o8WY9n4xYfTMNr1ZSOC/X+MPQcd9XjD7tfqeLr8mBVaczxDmj4Sy/uMnH38pbPNRZ3gLAsuzLkpZHetIbgeY0OhRCnr6yuq+gzLQwWQ868moLnuoJw3WBCqp9t840uhVXPLAM18OyVp86im7lc0Zf2rRQ/Iz7KHgEvgXU08pMi9MO/aONVk/pS+1x5hfnrwf4lup6H1LLGIE9fVE23/X0ZKse9OpgIODTL7JZS6+cZbvej0iTT3rJxn0/VHxf7yqPnGS0oL64lrfqHctmRExa6ih97Fcwuq5y437ttal4qGJV/6z+qXx1rvx136c3F/zUF9OVXud+PjTc9+Mq31bnKld6U3zXebJ8yaL4rvOkTKtcyWwWvcr3Zs/4FtB3VHv69Eo+/bhZ12PAD3GG4vTUweWJ+jeLRsZjJIUTyzAticyNgGJ1zoXLsZZ75fYG8DcObYSyP992h/W/uB4/ZBA++QuXL2ir51/WllYX8i33h97/4fZebpy9Fwe9sNrCjbNrMdw/phJLPPs8jjg6kwb3G6EcIRbYaUN/cMkrT7YrruV1DSwAqhU5QjcJdcJCg3LIc6qAjryTQZx6ajKRPi1fPx6tvuLJbzAJxfus+jJT/KnydY9GgVFfJvjSdpZlMKaCLKK8Ovp5i5aztGqXc7VpGl/SJ0PVWfSVU6d7PFUZ8ZXmXCFlQi6jo/I7ayda+gzY89db787/7uWYNf9WdXhJawBWnfXikrUuoFGHevDlKcA1NxHfv5Ucz8dLfROdl+RexluxVAHP8vdD/951tUtdrqst0up6sjxdlbfK9tNd92usPP165anyk/HSZoXiF6+T5fr3RdtZvHb049Cv+Gl1yTst1MQ+zbCQv8pVXepVTx1FE//TQr+8Mm82FJ3J8tWfdS79Kj4rv/JZPxZSFHXR8YQ1IhoDvh4fJUUJV+OI0X2cThGKYevslV2ID7YsobRmfm+4Yd51TXwM8pGl+A3KB9qB12LZWKzU2RWuncVIu/qiK9tNV90YW/feHh/x7AsAjsfd4G45nhLmd0Xns+wt0QQEEV+N77MzbnA/cnS9VUfU7D0tn7h+vOs+GKtiMo+4oul6MvTpTaYVoE1r42TeukevylVcnSfrmryfla/iJ8/Kp2U2kTCr/srWr7eftx9feaed9X29Wi/ZFp26Vy75Cx63kp98fRByDcy9oPWNgJVW+tnBqrcqqXSMgeBavX3+axDiq/ICdKDj2LdvX1tZWWn3xHsBeQC+lTqW7hXvde7TzcTen0qrcy/plO2elr/q69OYda38LBqzyhT9rcpNoz0tblY9s+j3dWNa2SpX52l5qg3T0rbSs2llziRukq9p9U3miW4ahfEF2MxwHPArz3adAbTXrOGKWYrrpbDm912zr+1dOL898+TT7dmnnm2L8RIXqO++cHf6Ot8V/s6l+V3dB1vB4EL66zEdVo0Tpo+3Ybs4Hei8EyUQI6AGCrAHwJYb+njJi1b30k0C3C+sePlO9TRIjMoU2NckAuzLSJBmvbSXt2j5XqOWhU4bzO/ErhnafPYkcPKz8zbW5WvcWDMQjxHdv72xrcLK1Te0qy+5Mqz/GEwHY0vcI/GIHGv+/aDJ7gD7zRgcG0djb5EAdz+Qwj0kOIWhP/oGN6OGP4ME3rQEgLEAgF0Dau9NrJwBvAXwXqraPuBALLdkLQJvvnjlHOVj7TNSE4l0kwV6yvrCNr+Ojczq8iLXC13vAgaw70twuD5bEth2wO/wGVKzdjoLfzFW3szHbmqx3U5Y+LvbxXvio4H4icLFiFsM052PfjnW4IdjuG2uxoqXKGdLZCHspfjb0ev/vm0mDn8GCbxJCaR7cFS2rHJWPV87EPfxFatcGl++5ZkAHDADfddlwRcL4ireGT35+Y/9ALU9cCzDBPbcOLYLsJKHpT9t4ii6w3mQwHZJYPsBP0zyzTDNWeMJ/qHwLP38F5a8CneH7/683bFKx9e1kWbHSS95Af7ifLiAYk1+jJzj1j2a/jmXyb9dEhjovCMlUCDvDJiBN7BfWVnJsw3zgDUw5n6xy6Y9feSXT5pywLxAHo3+QbAse+n2Q7EHji9irQhj2fvK1rJNYI/uEAYJnG0JbA/gh7JSWCpbapvXvTj76KS1zliPeL99u7oeLp1YibNrdwygsPBz5UcAfoyPsKLicSDyKZX/sny4ecY1nG3RDPS/3iXQB1mgzKIHwNbcu6/ll0DcXjo2xfMRFdeM7SZszQCspcsvuPYEwIp3tpLH0s67Y7dDNND0hW5tYFarR0wMnbZ/vUt9aN9bKYFte2mbgycB+nhzKPAJIawiWr28O5bR7Yq91TdX23mxZcJibGu8FKBvkPiRFNbTfFj/cTF9EJxE+IRahptBAqclAToLqAus3dsszjbPrHlLNK2yoY98+b8Zq3e4d6Tb8MwuhUsB+NLt7Kh80eS7rz1+7Dhae/DYsfJv/+2/nTuM2obB/itZf/DRdzOdVgOGTDsmAf369RC2DfC3FMZoMMjnYwsWjUdih8dmAhWfX925jkE0hEECOyGBAmp1WYJpzb3lmb/1W7+V21zTT8B8OKxzO4ra2tjWCrYYthvlyspK59oJ654ryH47ttC2HYPtivfHboc2MvPxlckCfW4dq4LUbQzExU40dajjHS6BnQP8nqDL92mzLo/RfKIJ+AHyAL97OO4VGC4HCZxFCZTusbRd3xZLJf/O3/k7+aGVr22trOGKYYQAfm4cW9X6aUdxu8KP78c1XKPBlVOH/J4GvKD1O79e0qKlHnrP8PGC2NNtLd08i00dSL/DJfCWAL6BQbn91B2Fry8VDQJgzw8qzxAGCZxNCfRdOezrzdA/QM0gsW/8D8fvxF4aFr+tkWuTM2CvnDx0l57SWy4ceivOE4Gvcr0L8AMndta0TbHll3z68ivHf49eRHQ7lZ7Nxg60BwmEBHYU8Cm6MAb8GDR1HaMo0wwmA2cIgwTOqgRG+lZ18J/TztJR55V9+9oP/8iP5J75fg2MX5+Lxv7zfPp01v7u9oHiorHUkovHwYUD7P0iETcRPWfFmxjKb68OgG/yqHqLn+E8SOBsSGBHAb8sKmcWPkuIlcMqskKnlL7ynY0GDzQHCaQEGB8j0C+9E19uFZY4kGaV++FoL1u5Yl6MLRdejd0tbYvgYywbr7Hm6bI9cex3D+Br9Q2aQB49T7L25qkVPLW8U57BpUMKQzjbEtjyB1DSJu8M86+JF1a7o6waVpFVCqwbKyMEaTX46vw1VToUHiRwhhJgbEwzOMTNfPI0cYx0t/S2ztOqN5EMYZDATkogVr+nfbNjgD/ZOIPH46wzC18wSGqg1Hmy3HA/SOBsSuBUgD9tIujzUvpbujsr/wD4fakN1zshgQL8HXPplIVUg8HZ43PF70SjhzoGCWwlgdLPyXweck/1ZqnKDWA+Kbnh/u0kgR0DfAPCUY/FrvOHQeI8hEECbycJFHifwBN9Hfn8T4jv3UyWm7zvZR0uBwm8JRLYMcDXOgOAz74fZj329vMM14ME3g4SGAD87dALAw9fiwR27O0Ry94a57LwMT2A/dfSdUPZQQKDBAYJnJkEdszC59uc9G8OFtOZddaQe5DATkrgVAbZtLF7pvm3sy2z6p7G53bWe67R2jHAP9cEM/A7SGCQwGwJzALY2SWGlLeDBAbAfzv0wsDDIIFzSAKzwL77ZmdYhPF27soB8N/OvTPwNkjgHJKAzVG2C+5nTSqz4gfXzekpygD4pyenIdcggUECPQlMA95tA90ZXzurvr/oo9gxycxNrP6rtOF8ogQGwD9RHsPdIIFBAltIANifVcDfov7J5G7bxcnY4X6aBMaA383OOVdGvjgPH0RNk9cQN0jgHSWBaVa7b2kOxg+9+D0LYPvMM8+k5S3ejqE2ibMZnA3lTAyWY9f2KX3h1aQhvb66t5LvUGxMlxsqxlJu8UWLdY8fG9HZeM6OpXYutXmdDer8Ahke5EF7Gu/9+t+J12PAfyc2fmjzIIFBAmcuAWAKcO2F5de/fv7nfz5/JGZlZaV94hOfaB/+8IfzK3oADcAXZmwWB5CZmNLlrfw2VkTbxOFQn7RjAfS74h5N948++mj7yZ/8ydye+o477mif/OQnc6dS+WsSOfPWfX2XGAD/67t/h9YNEviaJDBpKbs/aP//+CUvlvd9993XPvWpT6WV78fa/RaAX/WyPXRt+fz/t3dnv3YV2RnAd1vpjtqCtBibIRCbwYBAgjDPbUyDEINASCAegCCl4Zl/gWdeeEDiAYQQkwjCjC0gmBnCZCBgQIghjWkEYSbYSdqdbiDrVz7rcnx8zvW95t5zfe1V0j5779pVq6q+a39r1aq1a4/6Vi9ZPAk+hCQhcV8XW758ebPcbUl9zjnntC2qkbzvBkus/jYTCAufwnnvvffa1tUXXHBBe87a97zSxggUKhtjUjmFQCEQCCDkRsp9aLhPAv/yyy/bZx6//vrrRsK+4/vmm292n336aSPcrD/KtdIs/CB81rjEjfNNyHrssce6u+66q1u5cmX77gDyzn6kLGfWv5mG7xC45s4hi+KgFCptjEAR/saYVE4hUAhAgAXeI/1G3kGkzkjW+Y033uheffXV7vtwv/hQjOTLYK+vWtX87O65ZjaVyELS2loYXw5D8AgbgVsH8AyRk+VI0nftmTK+OKaeZz/vzRhSkWyq/W3p+QDh56LttgRBjbUQKASGIWBBth1BxNL633bZ/OZcON988033D+G7Pzz89jvvvHNzxbDy16xZ05QCUkbowxKydiB3Zf4SpJ5l1bMoa4E2ZfD1e97vruE2Quy+QKYcJeGD8uR6VmlDBH7c8bX9TfC/3SwdA7pgw3p1VwgUAls5Akgzo16QaVrQhs13/swzz3Sff/55d/jhh3f/dNll7aPtCPqVl19ulj4i52pBvIh68EjCTxi1pTwfPPcOy929a2sCKIoMzyX9UYccybP+lDMReeqkUtigXF+/jNHRZhM911DK26BOL3NYnkfyyWhyQl5/Odf99yl/ts8x8Qm8hrJ6WfmzDX7JLwTmAwLItJFTj0gRGPIWkmmh9KMIifSx9oMOOqhbHFb+gQce2L7Z+x8RPcO1g/zVH2VpI+y01vvJP9vlnsFGnmXbTelEHrnfRX82RZ6pbNSjNFI2meqbVZDtPvtDwVhIdt/aCdIelQbbz/Ipi1zKRj9cz3UqM36u/wLVfiGwhSKAtFi8FmmRFdLiH2fVW1Bd/eGH3T777NM+8L5LxN8fccQR3eLFi7uPI9JmVfjxLeIibQQ6KiFIRyP3KKs993/tzQrUs0aQpNzkMFcj/TXyW/969y1z4CcJXrlG8CGXpd8IORSac7atqjE6lDdmfZksea5cHj/EdcojW/uObGcyWeN4VoQ/DpSrjUJgniKAvKQkYvese+GYCPTggw9uLzwhNOQvJBNFsvDffffdRpgs62EJSYqtR7DkIk/WMHKnZBCls4N7iIunn+CVd2Qfh7VBhtTKhRzKhyyzj7S8nf83Zi3WHfTVWLRD6eij+1EpnynfMIqC2qRUrEGQTYYxadP1XKbRqncue1VtFwKFwBaBAIJKC9WbtZ9+9ln33HPPdV9/9VW3OAjeS1b5pusOO+zQHXLIIU0BfPTRR93zzz/fHXDAAd3uu+8+dCzkImJtJHkjUMTuLA9JandBHMpTDnzzkjKTkb0y/XLJQbyI2NoAgjZ7CCHr1wxCGVBA2uqflZAxqh3yJM/JSyWSfZNnsZmLiMxRcpqQMfwU4Y8B5GqiEJivCCBYKUmLdf/KK680d8p+++3X7b///s0qRqJCI+Xtu+++zeXz9ttvN/fPKMJHlmL4M6IHGX4VisQaAaL3xu1XEeu/pud7R9K5kKssBbApAkW4yjjWhUzyKSNj0A5LnBxhpRTXscce2/3d9tt3O+y4Y2vL2CezytU1jm+//bb7+OOPu/fff7+dvaMgbRcvqBm/2c9ee+3V1jxGzXhahVn+KcKfZYBLfCGwpSPAgh2WkOTChQsbMSJaJCwy59N4sYp//h8PO6yR+7p16yZi8w+LPMc777zTXDpPPfVU8/Frg/Jg5SJJRKzeDTfc0N16661tDx4EjAzlI3czCUoDoVImnp900kndVVddNSFHH1nVaWkbh+scE1nGoL/33ntvt+KRR7o/BuF/8cUXrQ/Kp+XN//7r3XbrbNNw9tlnd2eccUZ7RvF4uSv7j9wRubYpA+sZ99xzT3sngTIxNoqkP0pp+1Aixx13XHfaaad1p59+eqsPT2Xgkf3Vn/6kjZlI/sSOIvyZQLNkFAJbIQJJQsheQmas2LVr1zZXzcHhvvEMwUnKI+olS5Z0O4aFzMq1uZntEli5yEuZJMr0cyNc18jTIbaf20Y5rhEEjuw9IxdRIvGcfaifLhT9cK2stsihfO6///7ukSD7Tz75pJG4mQgZFIlySNxsw0HRuNfusmXLWplUIvpEKWnTzIQSefTRR9sbx9rcZZddmhVPQcBFX8m0wdwTTzzRlKA+XHjhhe29BeOGGdIfRyrCHwfK1UYhMA8RQFiILcnNm7VetkK+Rx99dPPf58tQbXhBnBK/vmgdm5u99dZb7dgtLGekllYycuRCOe+889oMAIkiXi6cf7nzzom9dFjayBOJs+T33HPPRpDuk+jJdZ/JNVmO/wrl8eCDD3Z33HFHI99jjjmmRRN5d4DVTbZyLP7PY33igd//vnvxxRcbOSN3BH7UUUel6HZmlVMAq1ev7u6Mvr4dC9i777FHt3Tp0iabS8t6hpkBpUC2WQDCh8l9993XlIIZhL7Dogh/A4jrphAoBMaNQD+JIq2X44WqT8LC58448sgjm9WOrBCvc5jkrYt81TY+4/754IMP2ktaXDGs6T+Fr/+7KI9kWbaUA+WRiUJhMZsZWB84//zzm2LwXBuIFuEi4zwopv6+Kks+5bIy+vz00083y54r5YorruiQPlnqOMjZe++9myvJQvRtt93W3X777a3fr732WndIRCLZLE45ch0scyRu1vOr8P9TXHYKpZD0Lwp138eRfYSX8dx8880tgslsA0beXeifPej7bKYf1eJstlKyC4FCYF4igBj5wRFxLnTycfPTI1pkhdSEMCJP99w8GZPPKheTr74kWiXj+hFnRrUgUNeOtWEZa5N17JxE76wtZdT1TNKP/uRZ1nnppZea8tgltn04/vjjmyvKc4mcbNc9BSSqKMvx+7PIlUnlQK7Eejcusx2zAIRO0SnX+h5uL2d9szagjAVhBwVn735lJf2B2zhSuXTGgXK1UQjMUwT4oNcG8X4YL1khbW+mInzbIOcLUdwxfw7ytFc93zd3xt5BfiJT+K7Vs/gqZHNikbJHnO6bRRz4IPNf9O6znLN8yUxC7P+COGeShzCT5BFyXiPRt2JfH8SNyM0m9C3DMtUlmzulv471BuRt+wgzmz/1lE66XRC1driA5HFN2UfINUVAcUhwQfg+6GIce4Tb56KLLmrjMEtSz/McQ45pNs+pZGazjZJdCBQCWzACSai6mMSH0LhEkBiL25bFyB9pnXrqqW0x9OdBaBY+Jb5wiV+cItgzLFjWLGvfIm8uhCIccreLcsguCchZP2x8pg8ORNjWCKIv+qF8FGpnZS3Isr6TYBdEHjn6juwd5Am5ROL9C8HKSOSSle3LU177SJp8ZXP2obzZjDr/F2dtrIsylIg68FA28VNuYfQT+XvmxTTKhOJxn+NSV9nBQ39mIoXoGGNF6cwEliWjENgqEWiWe5C8N2b5qiURODvttFMjQvf9BOW+kTKyDII7IMpyXbCUWflcIHz56iBEhN7Kq9hLnmXKKw6YvM5ng2eEud5Rsz5Kh2yEffXVV7coIdd7RV8om2zfOZUO4kbU8pA8ecbf5MY1ZaGMe2NjoXvLWATQf0aY6gsvvNAWYkURWasglyzl/yeUgXaNWT0kHw9anudNsckbQ/pxbjSGxqqJQqAQmF8IcGlYfHUWacP/zJ2TVrXRIDYJoSFWCZEdFi4Usede1uILf/bZZ9tCpdkA/zYLV7nBlPIG8ye7TznO6iNRswtt2OANyeqf54hcQuBmH1w+QkGtGYhEcu8FKinlkplELZ/cpRGVY0yidCzyCrcU0cOKN9OBEUWhHw6y9MG15D6PljGGnyL8MYBcTRQC8xWB1RF6aLGWhYrEWL8sdsSFBPMwPhYyIpQsZrrmKmHxesNVxAtSTJfJINmlLOfppiRTZ4mMfpKXTwk4G4O9frxARhGZfXhXQLw8n/+uoSCQPuVFOZCVMwHX62JsxmRNQGTOvfHS1apQFDfddFMLvaQQrWHsFH59M5zFEaJqPYPioWQk5+xjyxjTTxH+mICuZgqB+YYAAvcxEy9bSV6kevjhh1uYIwUgIXQJeWUeC9Y165YFzb9tl82mPCJMctGiRe0Z8k2CbkJ6csiabso6uTdO1kf6DiRvHNxKvtJl8zfjMXNJ/7uxmJWYyZiVUFLqkp2uJ/fSn2OGwg9/6aWXNjJ/8sknW5gmJSKOXwgrHChJ8nLLiVNiVrAkFpBzzUAEj10/c2aU/Z6tcxH+bCFbcguBeY6AGHofKGftsmgt2rKEKQIJEebhHmmJUnF2KJ9WfhRs++q8GrOD03pbCyDhJGr1pX5563Om9qse5fFdEGhcEDThYqJoHn/88aaojAmRp7IRKWOLiEPjWBSKaHFY48Z3/fXXt/cBjEEyHhFCP4RSQOQUQLqwTjzxxOaqIltb1jvMICgTM5o3w/qnQIRmUqCXXHJJi3SCKcXI2id/HOlv4EOfBj6VCoFCYBtBIAnPcFmbwilZ5GnBIjTWvBegkKm4+2WxzcCvwv+OpESoDCYukyRsZ4RINv/4Aw880Pzj3rxd9frrLdoH0WlTW0nYLN6J+2jAy0tpDff3TdvpVtIf9ZVTBmEjZWcuGwu3LHAKRjz+oiB2cfOHHnpoI2oLrQiX+0YdWBgLyx8pe9bGFfIl19px9sy1xViL2XCSr0/GTQlom+KkLB0UweWXX96dcsopE/0dnOm0hnpt5fVMnMvCnwkUS0YhMI8RQDaIF3mltflZxJizVrk9EOIJJ5zQnXXWWd12QYC/DN98ku/gsIcRF6UhmkUsPj/5OxH1syxCO/sXflMOD3y/DAog7xHpsCQ/LW7X+uYeuV533XVt0ZlrZWm4UxC9L3QdGG4Vb8imtY6gKQykr67k3uKyWQsl4Jk+y8+U7abyIS/laHNRKBdKwFu+d999dwtv1S8upaOiL3blHIVltjGT5yL8mUSzZBUC8xABJI+onJGrAzlbzOT+sAWABUrbBqQ1nSQ8ONxh+RndY+dMhM+HTj65Sa6DcobdI/8wnycUQJZJRaBtcfthnjeCtvWB9weMy+yEwhJKybUiT0qibla8jKgrWqetO4QCtCZAPvIW52/8Oeto7YVyQdipMMwMuH4oCvWsXVik9k6CZ15gEwlkAZsS2DFmBfLHlX5UVeNqsdopBAqBLQqBtFiRL5JyFpnjLVlWLYtYlIlnfNpI0sdEhh0IbvDgx0fuZCBG/m2LmlNJafEj1wn/fK+i/ui7A2HrT3SyPbVYbAyS/WrOPPPMRrpmMrlI61nKQNracJjdUHTtWeTnLADRO9KNoyxZ2ldf+ZbibMxmA178yja8wyCCh7KxgMzlkwmm40hF+ONAudooBLZgBJAVwkFgEvfL6+Fn9+1alq2tFDKUkgJgkSb59Z8RsoiTwYNsUSpi+C2SsvJZ3xn9MwyaCfKMh0nE5Ggv+6meclnWHj2SmYCyImb47fnhbY6GgJX1zDiMG/lSQmm5Cye1zoD0EflfwqevjDqSsStr5nDNNdd0Dz30UHP5KEu2vrV+RnnrAVK6hSgK7WZ/28P4cT+Yl89m+lyEP9OIlrxCYJ4hgCCREkJCbitjwzF+ZuTGKucGYRkjQ8SEKNsXsFi2/Yf8IQcCZPHaktieM9rgw86XmyaDK8k+z/1l+0kSuZqZNMIN0mWVe46ctefwTB4FkGXJU8bMxWGnTrtrWljVZyqQ7JRPgZih2PVSJM+NN97YXDTkS9kWBZAzA21RNhSdNZHEw3MJZv1jaZmz9LNgwfB1kFlqrsQWAoXAXCKQxLnBudch5C2k8Ln4Fu2XQXjK2AqBS0dC+pSA/GCojQ6khejySBJTHpnawIxrB3kiPvvrINskU+WV1Q4ZFkqV06ZEKSmLMFsfIg/BKptte5732vvbsKhZ+i/EmCgsJMvdYz8cREy2PO4VZH/ttde28tYdPFcHUaeSUF40ji2WKYTVsbBtT3y7cuqX5w790hf9+mWQPQXiYymihuTpG+WnTkswHUMKpNb/3cbQVjVRCBQCWwIC/eQS10gX8dgJ8w+xUGux1g6RNkqzhzu3joRIp5xCbpKymQMS//tY9LVjJvcQ0hWTLk49LWHlWcLuXSNbRKws9483fH3MJOP3Ead+O7OS9S/P20eYpBmFfezV/dfYf/7fYhsECiTLIXTrFBTPLbfc0t0Ub8oicFs7C9mkpCzgelmLe8uH29X19izZyilje4Xly5e3L2pZlJWnT+RTFqKSKBMfdReP/+tdd21bTlAqknJcVeNI41seHsdoqo1CoBCYNgL8yg5+63+P6BGx4wgXoS0JwmexIiV5iMwxnZTuDguYLFtuIguqXDos40WLFjWiVo5ysAUB0hTN4mMk7i2iCu/cJ16MOu23v23N64/EklbXkUTLIhdZ5KtSK1asaHHwyJd7ys6ZQk2FWxprvk1MjsiZiy++uOXrI4XEfYP0WeS2UhBmaV3jsssua4RuHL5iJfKG/MXRR2sVxkBReE6Jap+y8HnDk08+uWFO2cJ3upi2gW/GTxH+ZoBWVQqBrQkBRId4WLf8066RIit3tzgjVpY069Yx3SScMRit1UXuSJElrB1EKmRSqKRkY7Wlv/lNy0f43CCUgAMpUkI+osLqZ+l74clMQD3y9JVy0s9dw5JGysjXzIA7RThoKoqcWZgVcFsdGbL/+Xe/awqGkkHMQkmtZ1AayJpLCi7DClDlAAAEaElEQVTaFWp55ZVXtjJPRznusHTZwIsS1Rbi1wfjPvfcc9sH0nPHUWU2B9Pp/g2y/M+iQzH36t1OT3GnjDoXAoXAPEGgkV3vv3xei25xzQr16T2+c1EtLGTfZ003CUt0yinkpZsCUacFi6RZ9enzRsqsau4jzyRbOXCTeDuV/13dPULx7BxKwV78+oVE+cVXRH/t1y/ccenSpc0KNxaEmzMTMwPWt22eXVuf4LIyC7AfjhmHr1xRJpQAxWHM+mFxGeGzzsnzAprdMCkV5XIx1njMFCgU5c0eyEfslKc6iac2rSGIZlK//R1GAJu4jXg89ewexxfhTx2yKlkIzHsEkuT9/89rxIzM0gXBZ4+IkA0L1AxgwhKNsvFg0zj0ET5yRKCZyKNU5HHD8Oln+8poVxluHH1C3ixq6wAsZRZx9gspp4Ws32SShYydjZE8C75mAv8dM4M1cagjP2Wqm2WdydFvCkAf5CFx5chN95FrctyT/WX0WZ/ajCjyfxH19RnJ58Jv9t2shdxsL/HpP5M9I6kIf0ZgLCGFwLxBALH0p7xPi9a9t0R94ANhIRuH/CRI9adKQil/8JwELV87UpbxLK/lo7vstXaVdySZtzKRr558dVNGf9+Vk7JNEUn9cuXDQZ2UjcSRs5TtZn+Uc0j91+7JcrTr6NPE+wG9vBy/eu1N3uhL5rVKs/HTG2xZ+LMBbsksBLZABJKEBruWRDmYP0hoeT9Ybir3w9ruJ8YNZAQxpjtog/y4GdWH2SZMGA1Lo9qdrPywMQzLG9beZuf1CH8aTrnNbqoqFgKFwBaMALKZjHBGkdp0hjRK/jBFEJ1plv2g/E31c7D8TN5PF4NR5UfhMJN9nUxWEf5k6NSzQmAbQCCjaAaHOpSMBwv9xPtRBDgsnwMl3SM/sdk5qz4OTCcbXBH+ZOjUs0JgW0Cg54seNtQkqGEEPKz8dPImkznZs+m0UWU3RKAIf0M86q4Q2OYQSFIfHHi/H1qZUW6KwXqD96PkD5abyv0oWaUgpoJezJB+6F8daYvOFifa5GlqEqpUIVAIzGsERpGoQXmWZJrnzRnsqDamK3Om5GzOGOZfHSu1jnhZLk6ufvZ9EP6PMzpZ/YS/PuwoMisVAoVAIVAIzBsEcHke3o4WXtuof96MoDpaCBQChUAh8BMQmP7GGD+hsapaCBQChUAhMHcIFOHPHfbVciFQCBQCY0WgCH+scFdjhUAhUAjMHQJF+HOHfbVcCBQChcBYESjCHyvc1VghUAgUAnOHQBH+3GFfLRcChUAhMFYEivDHCnc1VggUAoXA3CFQhD932FfLhUAhUAiMFYEi/LHCXY0VAoVAITB3CKwnfG/gVioECoFCoBDYqhFoW2Fv1SOswRUChUAhUAg0BMqlU/8QCoFCoBDYRhAowt9G/tA1zEKgECgEivDr30AhUAgUAtsIAkX428gfuoZZCBQChcCCtkd+4VAIFAKFQCGw1SOwoEVk1oettvo/dA2wECgECoH/BzoKBNxQ+Q65AAAAAElFTkSuQmCC;" vertex="1" parent="mQq_rkckX5Se1eWS7O4C-37">
          <mxGeometry x="29" y="21" width="91.28" height="43" as="geometry" />
        </mxCell>
        <mxCell id="mQq_rkckX5Se1eWS7O4C-54" style="edgeStyle=none;rounded=0;orthogonalLoop=1;jettySize=auto;html=1;entryX=0;entryY=0.5;entryDx=0;entryDy=0;startArrow=classic;startFill=1;strokeColor=#4D4D4D;endSize=3;startSize=3;" parent="1" source="mQq_rkckX5Se1eWS7O4C-40" target="WT4P8QazUYSX7gvzG4r9-7" edge="1">
          <mxGeometry relative="1" as="geometry">
            <mxPoint x="316.1" y="292.5" as="targetPoint" />
          </mxGeometry>
        </mxCell>
        <mxCell id="mQq_rkckX5Se1eWS7O4C-40" value="" style="shape=image;verticalLabelPosition=bottom;labelBackgroundColor=default;verticalAlign=top;aspect=fixed;imageAspect=0;image=https://quiksite.com/wp-content/uploads/2016/09/Nginx-Logo-02.png;strokeColor=#808080;" parent="1" vertex="1">
          <mxGeometry x="253" y="285" width="40" height="40" as="geometry" />
        </mxCell>
        <mxCell id="mQq_rkckX5Se1eWS7O4C-56" style="edgeStyle=none;rounded=0;orthogonalLoop=1;jettySize=auto;html=1;entryX=0;entryY=0.5;entryDx=0;entryDy=0;startArrow=classic;startFill=1;" parent="1" source="mQq_rkckX5Se1eWS7O4C-8" target="mQq_rkckX5Se1eWS7O4C-24" edge="1">
          <mxGeometry relative="1" as="geometry" />
        </mxCell>
        <mxCell id="mQq_rkckX5Se1eWS7O4C-57" style="edgeStyle=none;rounded=0;orthogonalLoop=1;jettySize=auto;html=1;entryX=0;entryY=0.5;entryDx=0;entryDy=0;startArrow=classic;startFill=1;" parent="1" target="mQq_rkckX5Se1eWS7O4C-8" edge="1">
          <mxGeometry relative="1" as="geometry">
            <mxPoint x="199" y="305" as="sourcePoint" />
          </mxGeometry>
        </mxCell>
      </root>
    </mxGraphModel>
  </diagram>
</mxfile>
